<mxfile host="app.diagrams.net" agent="Mozilla/5.0 (Windows NT 10.0; Win64; x64) AppleWebKit/537.36 (KHTML, like Gecko) Chrome/134.0.0.0 Safari/537.36" version="26.2.2" pages="4">
  <diagram name="Page-1" id="aElRX3dOq9fj0W4zoJvX">
    <mxGraphModel dx="2333" dy="1313" grid="0" gridSize="10" guides="1" tooltips="1" connect="1" arrows="1" fold="1" page="0" pageScale="1" pageWidth="1169" pageHeight="827" math="0" shadow="0">
      <root>
        <mxCell id="0" />
        <mxCell id="1" parent="0" />
        <mxCell id="tVe3DsJZcsti57cn5Gbl-1" value="CLUB MEMBER" style="shape=umlActor;verticalLabelPosition=bottom;verticalAlign=top;html=1;outlineConnect=0;fontColor=#000000;" vertex="1" parent="1">
          <mxGeometry x="150" y="200" width="160" height="275" as="geometry" />
        </mxCell>
        <mxCell id="tVe3DsJZcsti57cn5Gbl-2" value="&lt;font style=&quot;font-size: 15px;&quot;&gt;Ride History&lt;/font&gt;" style="text;html=1;align=center;verticalAlign=middle;whiteSpace=wrap;rounded=0;" vertex="1" parent="1">
          <mxGeometry x="624" y="660" width="90" height="30" as="geometry" />
        </mxCell>
        <mxCell id="tVe3DsJZcsti57cn5Gbl-3" value="" style="whiteSpace=wrap;html=1;aspect=fixed;" vertex="1" parent="1">
          <mxGeometry x="440" y="210" width="450" height="450" as="geometry" />
        </mxCell>
        <mxCell id="tVe3DsJZcsti57cn5Gbl-4" value="" style="ellipse;whiteSpace=wrap;html=1;" vertex="1" parent="1">
          <mxGeometry x="585" y="230" width="160" height="70" as="geometry" />
        </mxCell>
        <mxCell id="tVe3DsJZcsti57cn5Gbl-5" value="&lt;font style=&quot;font-size: 15px;&quot;&gt;Book Rides&lt;/font&gt;" style="text;html=1;align=center;verticalAlign=middle;whiteSpace=wrap;rounded=0;" vertex="1" parent="1">
          <mxGeometry x="610" y="250" width="110" height="30" as="geometry" />
        </mxCell>
        <mxCell id="tVe3DsJZcsti57cn5Gbl-6" style="edgeStyle=orthogonalEdgeStyle;rounded=0;orthogonalLoop=1;jettySize=auto;html=1;exitX=0.5;exitY=0;exitDx=0;exitDy=0;entryX=0.5;entryY=1;entryDx=0;entryDy=0;strokeWidth=2;" edge="1" parent="1" source="tVe3DsJZcsti57cn5Gbl-7" target="tVe3DsJZcsti57cn5Gbl-4">
          <mxGeometry relative="1" as="geometry" />
        </mxCell>
        <mxCell id="tVe3DsJZcsti57cn5Gbl-7" value="" style="ellipse;whiteSpace=wrap;html=1;" vertex="1" parent="1">
          <mxGeometry x="585" y="350" width="160" height="70" as="geometry" />
        </mxCell>
        <mxCell id="tVe3DsJZcsti57cn5Gbl-8" value="" style="ellipse;whiteSpace=wrap;html=1;" vertex="1" parent="1">
          <mxGeometry x="585" y="435" width="160" height="70" as="geometry" />
        </mxCell>
        <mxCell id="tVe3DsJZcsti57cn5Gbl-9" value="" style="ellipse;whiteSpace=wrap;html=1;" vertex="1" parent="1">
          <mxGeometry x="605" y="540" width="115" height="40" as="geometry" />
        </mxCell>
        <mxCell id="tVe3DsJZcsti57cn5Gbl-10" value="&lt;font style=&quot;font-size: 15px;&quot;&gt;Cancel Rides&lt;/font&gt;" style="text;html=1;align=center;verticalAlign=middle;whiteSpace=wrap;rounded=0;" vertex="1" parent="1">
          <mxGeometry x="610" y="370" width="110" height="30" as="geometry" />
        </mxCell>
        <mxCell id="tVe3DsJZcsti57cn5Gbl-11" value="&lt;font style=&quot;font-size: 15px;&quot;&gt;Edit Info&lt;/font&gt;" style="text;html=1;align=center;verticalAlign=middle;whiteSpace=wrap;rounded=0;" vertex="1" parent="1">
          <mxGeometry x="610" y="455" width="110" height="30" as="geometry" />
        </mxCell>
        <mxCell id="tVe3DsJZcsti57cn5Gbl-12" style="edgeStyle=orthogonalEdgeStyle;rounded=0;orthogonalLoop=1;jettySize=auto;html=1;exitX=1;exitY=0.5;exitDx=0;exitDy=0;entryX=1;entryY=0.5;entryDx=0;entryDy=0;strokeWidth=2;" edge="1" parent="1" source="tVe3DsJZcsti57cn5Gbl-13" target="tVe3DsJZcsti57cn5Gbl-4">
          <mxGeometry relative="1" as="geometry">
            <Array as="points">
              <mxPoint x="940" y="560" />
              <mxPoint x="940" y="265" />
            </Array>
          </mxGeometry>
        </mxCell>
        <mxCell id="tVe3DsJZcsti57cn5Gbl-13" value="&lt;font style=&quot;font-size: 15px;&quot;&gt;View&lt;/font&gt;" style="text;html=1;align=center;verticalAlign=middle;whiteSpace=wrap;rounded=0;" vertex="1" parent="1">
          <mxGeometry x="605" y="545" width="110" height="30" as="geometry" />
        </mxCell>
        <mxCell id="tVe3DsJZcsti57cn5Gbl-14" value="" style="endArrow=none;html=1;rounded=0;strokeWidth=2;" edge="1" parent="1" source="tVe3DsJZcsti57cn5Gbl-1">
          <mxGeometry width="50" height="50" relative="1" as="geometry">
            <mxPoint x="535" y="320" as="sourcePoint" />
            <mxPoint x="585" y="270" as="targetPoint" />
          </mxGeometry>
        </mxCell>
        <mxCell id="tVe3DsJZcsti57cn5Gbl-15" value="" style="endArrow=none;html=1;rounded=0;strokeWidth=2;" edge="1" parent="1" source="tVe3DsJZcsti57cn5Gbl-1">
          <mxGeometry width="50" height="50" relative="1" as="geometry">
            <mxPoint x="280" y="547" as="sourcePoint" />
            <mxPoint x="585" y="470" as="targetPoint" />
          </mxGeometry>
        </mxCell>
        <mxCell id="tVe3DsJZcsti57cn5Gbl-16" value="Actor" style="shape=umlActor;verticalLabelPosition=bottom;verticalAlign=top;html=1;outlineConnect=0;" vertex="1" parent="1">
          <mxGeometry x="210" y="980" width="180" height="360" as="geometry" />
        </mxCell>
        <mxCell id="tVe3DsJZcsti57cn5Gbl-17" value="" style="whiteSpace=wrap;html=1;aspect=fixed;" vertex="1" parent="1">
          <mxGeometry x="510" y="830" width="610" height="610" as="geometry" />
        </mxCell>
        <mxCell id="tVe3DsJZcsti57cn5Gbl-18" value="&lt;font style=&quot;font-size: 20px;&quot;&gt;BOOK RIDES&lt;/font&gt;" style="ellipse;whiteSpace=wrap;html=1;" vertex="1" parent="1">
          <mxGeometry x="572.5" y="920" width="180" height="120" as="geometry" />
        </mxCell>
        <mxCell id="tVe3DsJZcsti57cn5Gbl-19" value="&lt;b&gt;&lt;font style=&quot;font-size: 20px;&quot;&gt;CSUTrike - CSU-G&#39;s Tricycle Booking Platform&lt;/font&gt;&lt;/b&gt;" style="text;html=1;align=center;verticalAlign=middle;whiteSpace=wrap;rounded=0;" vertex="1" parent="1">
          <mxGeometry x="520" y="850" width="460" height="30" as="geometry" />
        </mxCell>
        <mxCell id="tVe3DsJZcsti57cn5Gbl-20" value="" style="endArrow=none;html=1;rounded=0;entryX=0.045;entryY=0.692;entryDx=0;entryDy=0;entryPerimeter=0;strokeWidth=3;" edge="1" parent="1" source="tVe3DsJZcsti57cn5Gbl-16" target="tVe3DsJZcsti57cn5Gbl-18">
          <mxGeometry width="50" height="50" relative="1" as="geometry">
            <mxPoint x="740" y="1210" as="sourcePoint" />
            <mxPoint x="790" y="1160" as="targetPoint" />
          </mxGeometry>
        </mxCell>
      </root>
    </mxGraphModel>
  </diagram>
  <diagram name="Page-4" id="ise-4UzU1pK2HsWLD4Pn">
    <mxGraphModel dx="2625" dy="1663" grid="1" gridSize="10" guides="1" tooltips="1" connect="1" arrows="1" fold="1" page="1" pageScale="1" pageWidth="1169" pageHeight="827" math="0" shadow="0">
      <root>
        <mxCell id="0" />
        <mxCell id="1" parent="0" />
        <mxCell id="jkN5Dpx2dhSSrX-LSFd8-3" value="POTENTIAL MEMBER" style="shape=umlActor;verticalLabelPosition=bottom;verticalAlign=top;html=1;outlineConnect=0;" vertex="1" parent="1">
          <mxGeometry x="700" y="70" width="100" height="170" as="geometry" />
        </mxCell>
        <mxCell id="jkN5Dpx2dhSSrX-LSFd8-4" value="CLUB MEMBER" style="shape=umlActor;verticalLabelPosition=bottom;verticalAlign=top;html=1;outlineConnect=0;" vertex="1" parent="1">
          <mxGeometry x="70" y="70" width="90" height="160" as="geometry" />
        </mxCell>
        <mxCell id="jkN5Dpx2dhSSrX-LSFd8-8" value="" style="whiteSpace=wrap;html=1;aspect=fixed;" vertex="1" parent="1">
          <mxGeometry x="230" y="80" width="280" height="280" as="geometry" />
        </mxCell>
        <mxCell id="jkN5Dpx2dhSSrX-LSFd8-9" value="" style="ellipse;whiteSpace=wrap;html=1;" vertex="1" parent="1">
          <mxGeometry x="265" y="100" width="210" height="50" as="geometry" />
        </mxCell>
        <mxCell id="jkN5Dpx2dhSSrX-LSFd8-10" value="&lt;font style=&quot;font-size: 15px;&quot;&gt;Book Rides&lt;/font&gt;" style="text;html=1;align=center;verticalAlign=middle;whiteSpace=wrap;rounded=0;" vertex="1" parent="1">
          <mxGeometry x="310" y="110" width="120" height="30" as="geometry" />
        </mxCell>
        <mxCell id="RDATtGGWzH9cPjWCOElE-35" style="edgeStyle=orthogonalEdgeStyle;rounded=0;orthogonalLoop=1;jettySize=auto;html=1;exitX=0.5;exitY=0;exitDx=0;exitDy=0;entryX=0.5;entryY=1;entryDx=0;entryDy=0;" edge="1" parent="1" source="jkN5Dpx2dhSSrX-LSFd8-11" target="jkN5Dpx2dhSSrX-LSFd8-9">
          <mxGeometry relative="1" as="geometry" />
        </mxCell>
        <mxCell id="jkN5Dpx2dhSSrX-LSFd8-11" value="" style="ellipse;whiteSpace=wrap;html=1;" vertex="1" parent="1">
          <mxGeometry x="265" y="180" width="210" height="50" as="geometry" />
        </mxCell>
        <mxCell id="jkN5Dpx2dhSSrX-LSFd8-12" value="" style="ellipse;whiteSpace=wrap;html=1;" vertex="1" parent="1">
          <mxGeometry x="260" y="250" width="210" height="50" as="geometry" />
        </mxCell>
        <mxCell id="jkN5Dpx2dhSSrX-LSFd8-13" value="" style="ellipse;whiteSpace=wrap;html=1;" vertex="1" parent="1">
          <mxGeometry x="240" y="310" width="110" height="30" as="geometry" />
        </mxCell>
        <mxCell id="jkN5Dpx2dhSSrX-LSFd8-14" value="&lt;font style=&quot;font-size: 15px;&quot;&gt;Cancel Rides&lt;/font&gt;" style="text;html=1;align=center;verticalAlign=middle;whiteSpace=wrap;rounded=0;" vertex="1" parent="1">
          <mxGeometry x="305" y="190" width="120" height="30" as="geometry" />
        </mxCell>
        <mxCell id="jkN5Dpx2dhSSrX-LSFd8-15" value="&lt;font style=&quot;font-size: 15px;&quot;&gt;Edit Info&lt;/font&gt;" style="text;html=1;align=center;verticalAlign=middle;whiteSpace=wrap;rounded=0;" vertex="1" parent="1">
          <mxGeometry x="305" y="260" width="120" height="30" as="geometry" />
        </mxCell>
        <mxCell id="jkN5Dpx2dhSSrX-LSFd8-20" style="edgeStyle=orthogonalEdgeStyle;rounded=0;orthogonalLoop=1;jettySize=auto;html=1;exitX=1;exitY=0.75;exitDx=0;exitDy=0;entryX=1;entryY=0.5;entryDx=0;entryDy=0;" edge="1" parent="1">
          <mxGeometry relative="1" as="geometry">
            <mxPoint x="349.47" y="323.46" as="sourcePoint" />
            <mxPoint x="469.47" y="115.96000000000001" as="targetPoint" />
            <Array as="points">
              <mxPoint x="580" y="324" />
              <mxPoint x="580" y="116" />
            </Array>
          </mxGeometry>
        </mxCell>
        <mxCell id="jkN5Dpx2dhSSrX-LSFd8-16" value="&lt;font style=&quot;font-size: 15px;&quot;&gt;View&lt;/font&gt;" style="text;html=1;align=center;verticalAlign=middle;whiteSpace=wrap;rounded=0;" vertex="1" parent="1">
          <mxGeometry x="235" y="310" width="120" height="30" as="geometry" />
        </mxCell>
        <mxCell id="jkN5Dpx2dhSSrX-LSFd8-17" value="" style="endArrow=none;html=1;rounded=0;strokeWidth=2;entryX=0;entryY=0.5;entryDx=0;entryDy=0;" edge="1" parent="1" source="jkN5Dpx2dhSSrX-LSFd8-4" target="jkN5Dpx2dhSSrX-LSFd8-9">
          <mxGeometry width="50" height="50" relative="1" as="geometry">
            <mxPoint x="170" y="175" as="sourcePoint" />
            <mxPoint x="220" y="125" as="targetPoint" />
          </mxGeometry>
        </mxCell>
        <mxCell id="jkN5Dpx2dhSSrX-LSFd8-18" value="" style="endArrow=none;html=1;rounded=0;strokeWidth=2;entryX=0;entryY=0.5;entryDx=0;entryDy=0;" edge="1" parent="1" source="jkN5Dpx2dhSSrX-LSFd8-4">
          <mxGeometry width="50" height="50" relative="1" as="geometry">
            <mxPoint x="155" y="290" as="sourcePoint" />
            <mxPoint x="260" y="272" as="targetPoint" />
          </mxGeometry>
        </mxCell>
        <mxCell id="jkN5Dpx2dhSSrX-LSFd8-21" value="" style="whiteSpace=wrap;html=1;aspect=fixed;" vertex="1" parent="1">
          <mxGeometry x="860" y="80" width="240" height="240" as="geometry" />
        </mxCell>
        <mxCell id="jkN5Dpx2dhSSrX-LSFd8-22" value="" style="ellipse;whiteSpace=wrap;html=1;" vertex="1" parent="1">
          <mxGeometry x="890" y="100" width="180" height="60" as="geometry" />
        </mxCell>
        <mxCell id="jkN5Dpx2dhSSrX-LSFd8-23" value="&lt;font style=&quot;font-size: 15px;&quot;&gt;Create Account&lt;/font&gt;" style="text;html=1;align=center;verticalAlign=middle;whiteSpace=wrap;rounded=0;" vertex="1" parent="1">
          <mxGeometry x="920" y="115" width="120" height="30" as="geometry" />
        </mxCell>
        <mxCell id="jkN5Dpx2dhSSrX-LSFd8-24" value="" style="endArrow=none;html=1;rounded=0;strokeWidth=2;entryX=0;entryY=0.5;entryDx=0;entryDy=0;" edge="1" parent="1">
          <mxGeometry width="50" height="50" relative="1" as="geometry">
            <mxPoint x="785" y="150" as="sourcePoint" />
            <mxPoint x="890" y="132" as="targetPoint" />
          </mxGeometry>
        </mxCell>
        <mxCell id="jkN5Dpx2dhSSrX-LSFd8-26" value="" style="endArrow=none;html=1;rounded=0;strokeWidth=2;entryX=0.5;entryY=0;entryDx=0;entryDy=0;" edge="1" parent="1" target="jkN5Dpx2dhSSrX-LSFd8-22">
          <mxGeometry width="50" height="50" relative="1" as="geometry">
            <mxPoint x="380" y="100" as="sourcePoint" />
            <mxPoint x="995" y="40" as="targetPoint" />
            <Array as="points">
              <mxPoint x="380" y="40" />
              <mxPoint x="980" y="40" />
            </Array>
          </mxGeometry>
        </mxCell>
        <mxCell id="jkN5Dpx2dhSSrX-LSFd8-39" value="POTENTIAL MEMBER" style="shape=umlActor;verticalLabelPosition=bottom;verticalAlign=top;html=1;outlineConnect=0;" vertex="1" parent="1">
          <mxGeometry x="660" y="470" width="100" height="170" as="geometry" />
        </mxCell>
        <mxCell id="jkN5Dpx2dhSSrX-LSFd8-40" value="" style="whiteSpace=wrap;html=1;aspect=fixed;" vertex="1" parent="1">
          <mxGeometry x="810" y="405" width="325" height="325" as="geometry" />
        </mxCell>
        <mxCell id="jkN5Dpx2dhSSrX-LSFd8-41" value="" style="group" vertex="1" connectable="0" parent="1">
          <mxGeometry x="80" y="430" width="450" height="300" as="geometry" />
        </mxCell>
        <mxCell id="jkN5Dpx2dhSSrX-LSFd8-27" value="DRIVERS" style="shape=umlActor;verticalLabelPosition=bottom;verticalAlign=top;html=1;outlineConnect=0;" vertex="1" parent="jkN5Dpx2dhSSrX-LSFd8-41">
          <mxGeometry y="10" width="90" height="160" as="geometry" />
        </mxCell>
        <mxCell id="jkN5Dpx2dhSSrX-LSFd8-28" value="" style="whiteSpace=wrap;html=1;aspect=fixed;" vertex="1" parent="jkN5Dpx2dhSSrX-LSFd8-41">
          <mxGeometry x="150" width="300" height="300" as="geometry" />
        </mxCell>
        <mxCell id="jkN5Dpx2dhSSrX-LSFd8-30" value="" style="ellipse;whiteSpace=wrap;html=1;" vertex="1" parent="jkN5Dpx2dhSSrX-LSFd8-41">
          <mxGeometry x="220" y="20" width="160" height="50" as="geometry" />
        </mxCell>
        <mxCell id="jkN5Dpx2dhSSrX-LSFd8-31" value="" style="ellipse;whiteSpace=wrap;html=1;" vertex="1" parent="jkN5Dpx2dhSSrX-LSFd8-41">
          <mxGeometry x="220" y="80" width="160" height="50" as="geometry" />
        </mxCell>
        <mxCell id="jkN5Dpx2dhSSrX-LSFd8-32" value="" style="ellipse;whiteSpace=wrap;html=1;" vertex="1" parent="jkN5Dpx2dhSSrX-LSFd8-41">
          <mxGeometry x="220" y="150" width="160" height="50" as="geometry" />
        </mxCell>
        <mxCell id="jkN5Dpx2dhSSrX-LSFd8-33" value="" style="ellipse;whiteSpace=wrap;html=1;" vertex="1" parent="jkN5Dpx2dhSSrX-LSFd8-41">
          <mxGeometry x="220" y="220" width="160" height="50" as="geometry" />
        </mxCell>
        <mxCell id="jkN5Dpx2dhSSrX-LSFd8-35" value="&lt;font style=&quot;font-size: 15px;&quot;&gt;Login&lt;/font&gt;" style="text;html=1;align=center;verticalAlign=middle;whiteSpace=wrap;rounded=0;" vertex="1" parent="jkN5Dpx2dhSSrX-LSFd8-41">
          <mxGeometry x="240" y="30" width="120" height="30" as="geometry" />
        </mxCell>
        <mxCell id="jkN5Dpx2dhSSrX-LSFd8-36" value="&lt;font style=&quot;font-size: 15px;&quot;&gt;Confirm Booking&lt;/font&gt;" style="text;html=1;align=center;verticalAlign=middle;whiteSpace=wrap;rounded=0;" vertex="1" parent="jkN5Dpx2dhSSrX-LSFd8-41">
          <mxGeometry x="240" y="90" width="120" height="30" as="geometry" />
        </mxCell>
        <mxCell id="jkN5Dpx2dhSSrX-LSFd8-37" value="&lt;font style=&quot;font-size: 15px;&quot;&gt;Cancel Booking&lt;/font&gt;" style="text;html=1;align=center;verticalAlign=middle;whiteSpace=wrap;rounded=0;" vertex="1" parent="jkN5Dpx2dhSSrX-LSFd8-41">
          <mxGeometry x="240" y="160" width="120" height="30" as="geometry" />
        </mxCell>
        <mxCell id="jkN5Dpx2dhSSrX-LSFd8-38" value="&lt;font style=&quot;font-size: 15px;&quot;&gt;View Booking Details&lt;/font&gt;" style="text;html=1;align=center;verticalAlign=middle;whiteSpace=wrap;rounded=0;" vertex="1" parent="jkN5Dpx2dhSSrX-LSFd8-41">
          <mxGeometry x="240" y="230" width="120" height="30" as="geometry" />
        </mxCell>
        <mxCell id="RDATtGGWzH9cPjWCOElE-11" value="" style="endArrow=none;html=1;rounded=0;strokeWidth=2;" edge="1" parent="jkN5Dpx2dhSSrX-LSFd8-41">
          <mxGeometry width="50" height="50" relative="1" as="geometry">
            <mxPoint x="80" y="80" as="sourcePoint" />
            <mxPoint x="220" y="50" as="targetPoint" />
          </mxGeometry>
        </mxCell>
        <mxCell id="RDATtGGWzH9cPjWCOElE-12" value="" style="endArrow=none;html=1;rounded=0;strokeWidth=2;" edge="1" parent="jkN5Dpx2dhSSrX-LSFd8-41">
          <mxGeometry width="50" height="50" relative="1" as="geometry">
            <mxPoint x="80" y="110" as="sourcePoint" />
            <mxPoint x="220" y="110" as="targetPoint" />
          </mxGeometry>
        </mxCell>
        <mxCell id="RDATtGGWzH9cPjWCOElE-14" value="" style="endArrow=none;html=1;rounded=0;strokeWidth=2;" edge="1" parent="jkN5Dpx2dhSSrX-LSFd8-41">
          <mxGeometry width="50" height="50" relative="1" as="geometry">
            <mxPoint x="70" y="120" as="sourcePoint" />
            <mxPoint x="230" y="170" as="targetPoint" />
          </mxGeometry>
        </mxCell>
        <mxCell id="RDATtGGWzH9cPjWCOElE-15" value="" style="endArrow=none;html=1;rounded=0;strokeWidth=2;" edge="1" parent="jkN5Dpx2dhSSrX-LSFd8-41">
          <mxGeometry width="50" height="50" relative="1" as="geometry">
            <mxPoint x="70" y="120" as="sourcePoint" />
            <mxPoint x="220" y="240" as="targetPoint" />
          </mxGeometry>
        </mxCell>
        <mxCell id="jkN5Dpx2dhSSrX-LSFd8-42" value="" style="ellipse;whiteSpace=wrap;html=1;" vertex="1" parent="1">
          <mxGeometry x="820" y="414" width="100" height="36" as="geometry" />
        </mxCell>
        <mxCell id="RDATtGGWzH9cPjWCOElE-10" style="edgeStyle=orthogonalEdgeStyle;rounded=0;orthogonalLoop=1;jettySize=auto;html=1;entryX=1;entryY=0.5;entryDx=0;entryDy=0;" edge="1" parent="1" target="jkN5Dpx2dhSSrX-LSFd8-30">
          <mxGeometry relative="1" as="geometry">
            <mxPoint x="820" y="432" as="sourcePoint" />
          </mxGeometry>
        </mxCell>
        <mxCell id="jkN5Dpx2dhSSrX-LSFd8-43" value="Add Driver" style="text;html=1;align=center;verticalAlign=middle;whiteSpace=wrap;rounded=0;" vertex="1" parent="1">
          <mxGeometry x="840" y="417" width="60" height="30" as="geometry" />
        </mxCell>
        <mxCell id="jkN5Dpx2dhSSrX-LSFd8-44" value="" style="ellipse;whiteSpace=wrap;html=1;" vertex="1" parent="1">
          <mxGeometry x="950" y="414" width="160" height="63" as="geometry" />
        </mxCell>
        <mxCell id="jkN5Dpx2dhSSrX-LSFd8-45" value="&lt;font style=&quot;font-size: 15px;&quot;&gt;Accept/Decline User Req.&lt;/font&gt;" style="text;html=1;align=center;verticalAlign=middle;whiteSpace=wrap;rounded=0;" vertex="1" parent="1">
          <mxGeometry x="970" y="430.5" width="120" height="30" as="geometry" />
        </mxCell>
        <mxCell id="RDATtGGWzH9cPjWCOElE-1" value="" style="ellipse;whiteSpace=wrap;html=1;" vertex="1" parent="1">
          <mxGeometry x="877.5" y="490" width="190" height="50" as="geometry" />
        </mxCell>
        <mxCell id="RDATtGGWzH9cPjWCOElE-2" value="" style="ellipse;whiteSpace=wrap;html=1;" vertex="1" parent="1">
          <mxGeometry x="877.5" y="555" width="190" height="50" as="geometry" />
        </mxCell>
        <mxCell id="RDATtGGWzH9cPjWCOElE-24" style="edgeStyle=orthogonalEdgeStyle;rounded=0;orthogonalLoop=1;jettySize=auto;html=1;exitX=0.5;exitY=1;exitDx=0;exitDy=0;entryX=1;entryY=0.5;entryDx=0;entryDy=0;strokeWidth=2;" edge="1" parent="1" source="RDATtGGWzH9cPjWCOElE-3" target="RDATtGGWzH9cPjWCOElE-22">
          <mxGeometry relative="1" as="geometry" />
        </mxCell>
        <mxCell id="RDATtGGWzH9cPjWCOElE-3" value="" style="ellipse;whiteSpace=wrap;html=1;" vertex="1" parent="1">
          <mxGeometry x="880" y="630" width="190" height="50" as="geometry" />
        </mxCell>
        <mxCell id="RDATtGGWzH9cPjWCOElE-4" value="&lt;font style=&quot;font-size: 15px;&quot;&gt;Delete Driver&lt;/font&gt;" style="text;html=1;align=center;verticalAlign=middle;whiteSpace=wrap;rounded=0;" vertex="1" parent="1">
          <mxGeometry x="912.5" y="500" width="120" height="30" as="geometry" />
        </mxCell>
        <mxCell id="RDATtGGWzH9cPjWCOElE-5" value="&lt;font style=&quot;font-size: 15px;&quot;&gt;Updated Driver&lt;/font&gt;" style="text;html=1;align=center;verticalAlign=middle;whiteSpace=wrap;rounded=0;" vertex="1" parent="1">
          <mxGeometry x="912.5" y="565" width="120" height="30" as="geometry" />
        </mxCell>
        <mxCell id="RDATtGGWzH9cPjWCOElE-6" value="&lt;font style=&quot;font-size: 15px;&quot;&gt;View/Download Report&lt;/font&gt;" style="text;html=1;align=center;verticalAlign=middle;whiteSpace=wrap;rounded=0;" vertex="1" parent="1">
          <mxGeometry x="912.5" y="640" width="120" height="30" as="geometry" />
        </mxCell>
        <mxCell id="RDATtGGWzH9cPjWCOElE-9" style="edgeStyle=orthogonalEdgeStyle;rounded=0;orthogonalLoop=1;jettySize=auto;html=1;exitX=1;exitY=0;exitDx=0;exitDy=0;entryX=1;entryY=0.5;entryDx=0;entryDy=0;" edge="1" parent="1">
          <mxGeometry relative="1" as="geometry">
            <mxPoint x="1087.3930625663984" y="420.6055937246122" as="sourcePoint" />
            <mxPoint x="1070" y="129.46" as="targetPoint" />
            <Array as="points">
              <mxPoint x="1087" y="380" />
              <mxPoint x="1150" y="380" />
              <mxPoint x="1150" y="130" />
            </Array>
          </mxGeometry>
        </mxCell>
        <mxCell id="RDATtGGWzH9cPjWCOElE-17" value="" style="endArrow=none;html=1;rounded=0;strokeWidth=2;" edge="1" parent="1" source="jkN5Dpx2dhSSrX-LSFd8-39">
          <mxGeometry width="50" height="50" relative="1" as="geometry">
            <mxPoint x="720" y="480" as="sourcePoint" />
            <mxPoint x="860" y="450" as="targetPoint" />
          </mxGeometry>
        </mxCell>
        <mxCell id="RDATtGGWzH9cPjWCOElE-18" value="" style="endArrow=none;html=1;rounded=0;strokeWidth=2;" edge="1" parent="1" source="jkN5Dpx2dhSSrX-LSFd8-39">
          <mxGeometry width="50" height="50" relative="1" as="geometry">
            <mxPoint x="850" y="517" as="sourcePoint" />
            <mxPoint x="950" y="447" as="targetPoint" />
          </mxGeometry>
        </mxCell>
        <mxCell id="RDATtGGWzH9cPjWCOElE-19" value="" style="endArrow=none;html=1;rounded=0;strokeWidth=2;" edge="1" parent="1" source="jkN5Dpx2dhSSrX-LSFd8-39">
          <mxGeometry width="50" height="50" relative="1" as="geometry">
            <mxPoint x="777.5" y="590" as="sourcePoint" />
            <mxPoint x="877.5" y="520" as="targetPoint" />
          </mxGeometry>
        </mxCell>
        <mxCell id="RDATtGGWzH9cPjWCOElE-20" value="" style="endArrow=none;html=1;rounded=0;strokeWidth=2;" edge="1" parent="1" source="jkN5Dpx2dhSSrX-LSFd8-39">
          <mxGeometry width="50" height="50" relative="1" as="geometry">
            <mxPoint x="780" y="650" as="sourcePoint" />
            <mxPoint x="880" y="580" as="targetPoint" />
          </mxGeometry>
        </mxCell>
        <mxCell id="RDATtGGWzH9cPjWCOElE-21" value="" style="endArrow=none;html=1;rounded=0;strokeWidth=2;" edge="1" parent="1" source="jkN5Dpx2dhSSrX-LSFd8-39">
          <mxGeometry width="50" height="50" relative="1" as="geometry">
            <mxPoint x="780" y="730" as="sourcePoint" />
            <mxPoint x="880" y="660" as="targetPoint" />
          </mxGeometry>
        </mxCell>
        <mxCell id="RDATtGGWzH9cPjWCOElE-26" style="edgeStyle=orthogonalEdgeStyle;rounded=0;orthogonalLoop=1;jettySize=auto;html=1;exitX=0;exitY=0.5;exitDx=0;exitDy=0;strokeWidth=2;" edge="1" parent="1" source="RDATtGGWzH9cPjWCOElE-22">
          <mxGeometry relative="1" as="geometry">
            <mxPoint x="440" y="754.4705882352941" as="targetPoint" />
          </mxGeometry>
        </mxCell>
        <mxCell id="RDATtGGWzH9cPjWCOElE-22" value="" style="ellipse;whiteSpace=wrap;html=1;" vertex="1" parent="1">
          <mxGeometry x="560" y="700" width="210" height="110" as="geometry" />
        </mxCell>
        <mxCell id="RDATtGGWzH9cPjWCOElE-23" value="&lt;font style=&quot;font-size: 15px;&quot;&gt;System Generates Final Report at 7pm&lt;/font&gt;" style="text;html=1;align=center;verticalAlign=middle;whiteSpace=wrap;rounded=0;" vertex="1" parent="1">
          <mxGeometry x="580" y="725" width="160" height="60" as="geometry" />
        </mxCell>
        <mxCell id="RDATtGGWzH9cPjWCOElE-29" value="Depends on" style="text;html=1;align=center;verticalAlign=middle;whiteSpace=wrap;rounded=0;" vertex="1" parent="1">
          <mxGeometry x="852.5" y="755" width="60" height="30" as="geometry" />
        </mxCell>
        <mxCell id="RDATtGGWzH9cPjWCOElE-30" value="Depends on" style="text;html=1;align=center;verticalAlign=middle;whiteSpace=wrap;rounded=0;" vertex="1" parent="1">
          <mxGeometry x="580" y="450" width="60" height="30" as="geometry" />
        </mxCell>
        <mxCell id="RDATtGGWzH9cPjWCOElE-31" value="Depends on" style="text;html=1;align=center;verticalAlign=middle;whiteSpace=wrap;rounded=0;" vertex="1" parent="1">
          <mxGeometry x="650" y="10" width="60" height="30" as="geometry" />
        </mxCell>
        <mxCell id="RDATtGGWzH9cPjWCOElE-36" value="Depends on" style="text;html=1;align=center;verticalAlign=middle;whiteSpace=wrap;rounded=0;" vertex="1" parent="1">
          <mxGeometry x="510" y="120" width="60" height="30" as="geometry" />
        </mxCell>
      </root>
    </mxGraphModel>
  </diagram>
  <diagram name="Page-3" id="5uysL1wOSzmWlIi5y5QX">
    <mxGraphModel grid="1" page="1" gridSize="10" guides="1" tooltips="1" connect="1" arrows="1" fold="1" pageScale="1" pageWidth="1169" pageHeight="827" math="0" shadow="0">
      <root>
        <mxCell id="0" />
        <mxCell id="1" parent="0" />
        <mxCell id="ejA0bgsRGPt3zuPheltc-1" value="CLUB MEMBER" style="shape=umlActor;verticalLabelPosition=bottom;verticalAlign=top;html=1;outlineConnect=0;" vertex="1" parent="1">
          <mxGeometry x="70" y="50" width="60" height="110" as="geometry" />
        </mxCell>
        <mxCell id="ejA0bgsRGPt3zuPheltc-2" value="POTENTIAL MEMBER" style="shape=umlActor;verticalLabelPosition=bottom;verticalAlign=top;html=1;outlineConnect=0;" vertex="1" parent="1">
          <mxGeometry x="70" y="320" width="60" height="110" as="geometry" />
        </mxCell>
        <mxCell id="ejA0bgsRGPt3zuPheltc-3" value="DRIVERS" style="shape=umlActor;verticalLabelPosition=bottom;verticalAlign=top;html=1;outlineConnect=0;" vertex="1" parent="1">
          <mxGeometry x="80" y="580" width="60" height="110" as="geometry" />
        </mxCell>
        <mxCell id="erMzkrZGjhJIGj_i267a-5" value="" style="whiteSpace=wrap;html=1;aspect=fixed;" vertex="1" parent="1">
          <mxGeometry x="290" y="50" width="660" height="660" as="geometry" />
        </mxCell>
        <mxCell id="erMzkrZGjhJIGj_i267a-6" value="" style="ellipse;whiteSpace=wrap;html=1;strokeWidth=2;" vertex="1" parent="1">
          <mxGeometry x="330" y="60" width="160" height="50" as="geometry" />
        </mxCell>
        <mxCell id="erMzkrZGjhJIGj_i267a-7" value="" style="ellipse;whiteSpace=wrap;html=1;" vertex="1" parent="1">
          <mxGeometry x="330" y="140" width="170" height="50" as="geometry" />
        </mxCell>
        <mxCell id="erMzkrZGjhJIGj_i267a-8" value="" style="ellipse;whiteSpace=wrap;html=1;" vertex="1" parent="1">
          <mxGeometry x="330" y="210" width="170" height="50" as="geometry" />
        </mxCell>
        <mxCell id="erMzkrZGjhJIGj_i267a-9" value="" style="ellipse;whiteSpace=wrap;html=1;" vertex="1" parent="1">
          <mxGeometry x="330" y="270" width="170" height="60" as="geometry" />
        </mxCell>
        <mxCell id="erMzkrZGjhJIGj_i267a-10" value="Book Rides" style="text;strokeColor=none;fillColor=none;html=1;align=center;verticalAlign=middle;whiteSpace=wrap;rounded=0;fontSize=16;" vertex="1" parent="1">
          <mxGeometry x="365" y="70" width="90" height="30" as="geometry" />
        </mxCell>
        <mxCell id="erMzkrZGjhJIGj_i267a-46" value="" style="edgeStyle=none;curved=1;rounded=0;orthogonalLoop=1;jettySize=auto;html=1;fontSize=12;startSize=8;endSize=8;" edge="1" parent="1" target="erMzkrZGjhJIGj_i267a-6">
          <mxGeometry relative="1" as="geometry">
            <mxPoint x="410" y="137" as="sourcePoint" />
          </mxGeometry>
        </mxCell>
        <mxCell id="erMzkrZGjhJIGj_i267a-11" value="Cancel Rides" style="text;strokeColor=none;fillColor=none;html=1;align=center;verticalAlign=middle;whiteSpace=wrap;rounded=0;fontSize=16;" vertex="1" parent="1">
          <mxGeometry x="355" y="150" width="130" height="30" as="geometry" />
        </mxCell>
        <mxCell id="erMzkrZGjhJIGj_i267a-12" value="Edit users Info" style="text;strokeColor=none;fillColor=none;html=1;align=center;verticalAlign=middle;whiteSpace=wrap;rounded=0;fontSize=16;" vertex="1" parent="1">
          <mxGeometry x="360" y="220" width="110" height="30" as="geometry" />
        </mxCell>
        <mxCell id="erMzkrZGjhJIGj_i267a-13" value="View Ride History" style="text;strokeColor=none;fillColor=none;html=1;align=center;verticalAlign=middle;whiteSpace=wrap;rounded=0;fontSize=16;" vertex="1" parent="1">
          <mxGeometry x="345" y="285" width="130" height="30" as="geometry" />
        </mxCell>
        <mxCell id="erMzkrZGjhJIGj_i267a-14" value="" style="ellipse;whiteSpace=wrap;html=1;" vertex="1" parent="1">
          <mxGeometry x="510" y="330" width="175" height="80" as="geometry" />
        </mxCell>
        <mxCell id="erMzkrZGjhJIGj_i267a-15" value="Create Account" style="text;strokeColor=none;fillColor=none;html=1;align=center;verticalAlign=middle;whiteSpace=wrap;rounded=0;fontSize=16;" vertex="1" parent="1">
          <mxGeometry x="530" y="350" width="147.5" height="42.5" as="geometry" />
        </mxCell>
        <mxCell id="erMzkrZGjhJIGj_i267a-16" value="" style="ellipse;whiteSpace=wrap;html=1;" vertex="1" parent="1">
          <mxGeometry x="325" y="400" width="180" height="60" as="geometry" />
        </mxCell>
        <mxCell id="erMzkrZGjhJIGj_i267a-17" value="" style="ellipse;whiteSpace=wrap;html=1;" vertex="1" parent="1">
          <mxGeometry x="330" y="470" width="180" height="60" as="geometry" />
        </mxCell>
        <mxCell id="erMzkrZGjhJIGj_i267a-18" value="" style="ellipse;whiteSpace=wrap;html=1;" vertex="1" parent="1">
          <mxGeometry x="330" y="550" width="180" height="60" as="geometry" />
        </mxCell>
        <mxCell id="erMzkrZGjhJIGj_i267a-19" value="" style="ellipse;whiteSpace=wrap;html=1;" vertex="1" parent="1">
          <mxGeometry x="330" y="630" width="180" height="60" as="geometry" />
        </mxCell>
        <mxCell id="erMzkrZGjhJIGj_i267a-20" value="Login" style="text;strokeColor=none;fillColor=none;html=1;align=center;verticalAlign=middle;whiteSpace=wrap;rounded=0;fontSize=16;" vertex="1" parent="1">
          <mxGeometry x="365" y="413" width="100" height="30" as="geometry" />
        </mxCell>
        <mxCell id="erMzkrZGjhJIGj_i267a-21" value="Confirm Booking" style="text;strokeColor=none;fillColor=none;html=1;align=center;verticalAlign=middle;whiteSpace=wrap;rounded=0;fontSize=16;" vertex="1" parent="1">
          <mxGeometry x="335" y="485" width="170" height="30" as="geometry" />
        </mxCell>
        <mxCell id="erMzkrZGjhJIGj_i267a-22" value="Decline Booking" style="text;strokeColor=none;fillColor=none;html=1;align=center;verticalAlign=middle;whiteSpace=wrap;rounded=0;fontSize=16;" vertex="1" parent="1">
          <mxGeometry x="350" y="567.5" width="150" height="25" as="geometry" />
        </mxCell>
        <mxCell id="erMzkrZGjhJIGj_i267a-23" value="View Booking Details" style="text;strokeColor=none;fillColor=none;html=1;align=center;verticalAlign=middle;whiteSpace=wrap;rounded=0;fontSize=16;" vertex="1" parent="1">
          <mxGeometry x="325" y="635" width="190" height="50" as="geometry" />
        </mxCell>
        <mxCell id="erMzkrZGjhJIGj_i267a-24" value="ADMIN" style="shape=umlActor;verticalLabelPosition=bottom;verticalAlign=top;html=1;outlineConnect=0;" vertex="1" parent="1">
          <mxGeometry x="1030" y="50" width="100" height="190" as="geometry" />
        </mxCell>
        <mxCell id="erMzkrZGjhJIGj_i267a-25" value="" style="ellipse;whiteSpace=wrap;html=1;" vertex="1" parent="1">
          <mxGeometry x="750" y="70" width="175" height="50" as="geometry" />
        </mxCell>
        <mxCell id="erMzkrZGjhJIGj_i267a-26" value="" style="ellipse;whiteSpace=wrap;html=1;" vertex="1" parent="1">
          <mxGeometry x="750" y="130" width="175" height="50" as="geometry" />
        </mxCell>
        <mxCell id="erMzkrZGjhJIGj_i267a-27" value="" style="ellipse;whiteSpace=wrap;html=1;" vertex="1" parent="1">
          <mxGeometry x="750" y="250" width="175" height="50" as="geometry" />
        </mxCell>
        <mxCell id="erMzkrZGjhJIGj_i267a-28" value="" style="ellipse;whiteSpace=wrap;html=1;" vertex="1" parent="1">
          <mxGeometry x="750" y="310" width="175" height="50" as="geometry" />
        </mxCell>
        <mxCell id="erMzkrZGjhJIGj_i267a-29" value="" style="ellipse;whiteSpace=wrap;html=1;" vertex="1" parent="1">
          <mxGeometry x="750" y="380" width="175" height="50" as="geometry" />
        </mxCell>
        <mxCell id="erMzkrZGjhJIGj_i267a-30" value="" style="ellipse;whiteSpace=wrap;html=1;" vertex="1" parent="1">
          <mxGeometry x="750" y="190" width="175" height="50" as="geometry" />
        </mxCell>
        <mxCell id="erMzkrZGjhJIGj_i267a-33" value="Add Driver" style="text;strokeColor=none;fillColor=none;html=1;align=center;verticalAlign=middle;whiteSpace=wrap;rounded=0;fontSize=16;" vertex="1" parent="1">
          <mxGeometry x="750" y="80" width="170" height="30" as="geometry" />
        </mxCell>
        <mxCell id="erMzkrZGjhJIGj_i267a-34" value="View/Download Report" style="text;strokeColor=none;fillColor=none;html=1;align=center;verticalAlign=middle;whiteSpace=wrap;rounded=0;fontSize=16;" vertex="1" parent="1">
          <mxGeometry x="755" y="390" width="170" height="30" as="geometry" />
        </mxCell>
        <mxCell id="erMzkrZGjhJIGj_i267a-35" value="Decline User Req." style="text;strokeColor=none;fillColor=none;html=1;align=center;verticalAlign=middle;whiteSpace=wrap;rounded=0;fontSize=16;" vertex="1" parent="1">
          <mxGeometry x="755" y="320" width="170" height="30" as="geometry" />
        </mxCell>
        <mxCell id="erMzkrZGjhJIGj_i267a-36" value="Accept User Req." style="text;strokeColor=none;fillColor=none;html=1;align=center;verticalAlign=middle;whiteSpace=wrap;rounded=0;fontSize=16;" vertex="1" parent="1">
          <mxGeometry x="752.5" y="260" width="170" height="30" as="geometry" />
        </mxCell>
        <mxCell id="erMzkrZGjhJIGj_i267a-37" value="Update Driver" style="text;strokeColor=none;fillColor=none;html=1;align=center;verticalAlign=middle;whiteSpace=wrap;rounded=0;fontSize=16;" vertex="1" parent="1">
          <mxGeometry x="752.5" y="200" width="170" height="30" as="geometry" />
        </mxCell>
        <mxCell id="erMzkrZGjhJIGj_i267a-38" value="Delete Driver" style="text;strokeColor=none;fillColor=none;html=1;align=center;verticalAlign=middle;whiteSpace=wrap;rounded=0;fontSize=16;" vertex="1" parent="1">
          <mxGeometry x="750" y="140" width="170" height="30" as="geometry" />
        </mxCell>
        <mxCell id="erMzkrZGjhJIGj_i267a-40" value="" style="ellipse;whiteSpace=wrap;html=1;" vertex="1" parent="1">
          <mxGeometry x="680" y="542.5" width="225" height="97.5" as="geometry" />
        </mxCell>
        <mxCell id="erMzkrZGjhJIGj_i267a-41" value="Daily Booking Report Generation" style="text;strokeColor=none;fillColor=none;html=1;align=center;verticalAlign=middle;whiteSpace=wrap;rounded=0;fontSize=16;" vertex="1" parent="1">
          <mxGeometry x="675" y="534.38" width="230" height="113.75" as="geometry" />
        </mxCell>
        <mxCell id="erMzkrZGjhJIGj_i267a-42" value="" style="endArrow=none;html=1;rounded=0;fontSize=12;startSize=8;endSize=8;curved=1;strokeWidth=2;entryX=0;entryY=0.5;entryDx=0;entryDy=0;" edge="1" parent="1" target="erMzkrZGjhJIGj_i267a-6">
          <mxGeometry width="50" height="50" relative="1" as="geometry">
            <mxPoint x="150" y="85" as="sourcePoint" />
            <mxPoint x="290" y="40" as="targetPoint" />
          </mxGeometry>
        </mxCell>
        <mxCell id="erMzkrZGjhJIGj_i267a-43" value="" style="endArrow=none;html=1;rounded=0;fontSize=12;startSize=8;endSize=8;curved=1;strokeWidth=2;entryX=0;entryY=0.5;entryDx=0;entryDy=0;" edge="1" parent="1" source="ejA0bgsRGPt3zuPheltc-1" target="erMzkrZGjhJIGj_i267a-9">
          <mxGeometry width="50" height="50" relative="1" as="geometry">
            <mxPoint x="150" y="269.40999999999997" as="sourcePoint" />
            <mxPoint x="330" y="269.40999999999997" as="targetPoint" />
          </mxGeometry>
        </mxCell>
        <mxCell id="erMzkrZGjhJIGj_i267a-44" value="" style="endArrow=none;html=1;rounded=0;fontSize=12;startSize=8;endSize=8;curved=1;strokeWidth=2;entryX=0;entryY=0.5;entryDx=0;entryDy=0;" edge="1" parent="1" target="erMzkrZGjhJIGj_i267a-8">
          <mxGeometry width="50" height="50" relative="1" as="geometry">
            <mxPoint x="125" y="120.00063829787229" as="sourcePoint" />
            <mxPoint x="330" y="206.72" as="targetPoint" />
          </mxGeometry>
        </mxCell>
        <mxCell id="erMzkrZGjhJIGj_i267a-48" value="" style="endArrow=none;html=1;rounded=0;fontSize=12;startSize=8;endSize=8;curved=1;strokeWidth=2;entryX=0;entryY=0.5;entryDx=0;entryDy=0;" edge="1" parent="1" source="ejA0bgsRGPt3zuPheltc-2" target="erMzkrZGjhJIGj_i267a-14">
          <mxGeometry width="50" height="50" relative="1" as="geometry">
            <mxPoint x="310" y="210" as="sourcePoint" />
            <mxPoint x="510" y="380" as="targetPoint" />
          </mxGeometry>
        </mxCell>
        <mxCell id="erMzkrZGjhJIGj_i267a-51" value="" style="endArrow=classic;html=1;rounded=0;fontSize=12;startSize=8;endSize=8;curved=1;strokeWidth=2;entryX=1;entryY=0.5;entryDx=0;entryDy=0;" edge="1" parent="1">
          <mxGeometry width="50" height="50" relative="1" as="geometry">
            <mxPoint x="710" y="83" as="sourcePoint" />
            <mxPoint x="490" y="82.5" as="targetPoint" />
          </mxGeometry>
        </mxCell>
        <mxCell id="erMzkrZGjhJIGj_i267a-53" value="" style="endArrow=classic;html=1;rounded=0;fontSize=12;startSize=8;endSize=8;curved=1;strokeWidth=2;entryX=0.5;entryY=0;entryDx=0;entryDy=0;" edge="1" parent="1" target="erMzkrZGjhJIGj_i267a-14">
          <mxGeometry width="50" height="50" relative="1" as="geometry">
            <mxPoint x="598" y="100" as="sourcePoint" />
            <mxPoint x="600" y="310" as="targetPoint" />
          </mxGeometry>
        </mxCell>
        <mxCell id="erMzkrZGjhJIGj_i267a-56" value="" style="endArrow=none;html=1;rounded=0;fontSize=12;startSize=8;endSize=8;curved=1;exitX=1;exitY=1;exitDx=0;exitDy=0;strokeWidth=2;" edge="1" parent="1" source="erMzkrZGjhJIGj_i267a-6">
          <mxGeometry width="50" height="50" relative="1" as="geometry">
            <mxPoint x="535" y="190" as="sourcePoint" />
            <mxPoint x="600" y="103" as="targetPoint" />
          </mxGeometry>
        </mxCell>
        <mxCell id="erMzkrZGjhJIGj_i267a-57" value="" style="endArrow=none;html=1;rounded=0;fontSize=12;startSize=8;endSize=8;curved=1;strokeWidth=2;" edge="1" parent="1" source="ejA0bgsRGPt3zuPheltc-3">
          <mxGeometry width="50" height="50" relative="1" as="geometry">
            <mxPoint x="280" y="493" as="sourcePoint" />
            <mxPoint x="330" y="443" as="targetPoint" />
          </mxGeometry>
        </mxCell>
        <mxCell id="erMzkrZGjhJIGj_i267a-58" value="" style="endArrow=none;html=1;rounded=0;fontSize=12;startSize=8;endSize=8;curved=1;strokeWidth=2;" edge="1" parent="1">
          <mxGeometry width="50" height="50" relative="1" as="geometry">
            <mxPoint x="140" y="630" as="sourcePoint" />
            <mxPoint x="335" y="508.25" as="targetPoint" />
          </mxGeometry>
        </mxCell>
        <mxCell id="erMzkrZGjhJIGj_i267a-59" value="" style="endArrow=none;html=1;rounded=0;fontSize=12;startSize=8;endSize=8;curved=1;strokeWidth=2;" edge="1" parent="1" source="ejA0bgsRGPt3zuPheltc-3">
          <mxGeometry width="50" height="50" relative="1" as="geometry">
            <mxPoint x="140" y="711.75" as="sourcePoint" />
            <mxPoint x="335" y="580" as="targetPoint" />
          </mxGeometry>
        </mxCell>
        <mxCell id="erMzkrZGjhJIGj_i267a-60" value="" style="endArrow=none;html=1;rounded=0;fontSize=12;startSize=8;endSize=8;curved=1;strokeWidth=2;" edge="1" parent="1">
          <mxGeometry width="50" height="50" relative="1" as="geometry">
            <mxPoint x="710" y="510" as="sourcePoint" />
            <mxPoint x="710" y="80" as="targetPoint" />
            <Array as="points" />
          </mxGeometry>
        </mxCell>
        <mxCell id="erMzkrZGjhJIGj_i267a-61" value="" style="endArrow=none;html=1;rounded=0;fontSize=12;startSize=8;endSize=8;curved=1;strokeWidth=2;" edge="1" parent="1">
          <mxGeometry width="50" height="50" relative="1" as="geometry">
            <mxPoint x="510" y="510" as="sourcePoint" />
            <mxPoint x="570" y="510" as="targetPoint" />
          </mxGeometry>
        </mxCell>
        <mxCell id="erMzkrZGjhJIGj_i267a-62" value="" style="endArrow=none;html=1;rounded=0;fontSize=12;startSize=8;endSize=8;curved=1;strokeWidth=2;exitX=0.424;exitY=0.697;exitDx=0;exitDy=0;exitPerimeter=0;" edge="1" parent="1" source="erMzkrZGjhJIGj_i267a-5">
          <mxGeometry width="50" height="50" relative="1" as="geometry">
            <mxPoint x="660" y="560" as="sourcePoint" />
            <mxPoint x="710" y="510" as="targetPoint" />
          </mxGeometry>
        </mxCell>
        <mxCell id="erMzkrZGjhJIGj_i267a-63" value="" style="endArrow=none;html=1;rounded=0;fontSize=12;startSize=8;endSize=8;curved=1;strokeWidth=2;" edge="1" parent="1">
          <mxGeometry width="50" height="50" relative="1" as="geometry">
            <mxPoint x="510" y="660" as="sourcePoint" />
            <mxPoint x="570" y="510" as="targetPoint" />
          </mxGeometry>
        </mxCell>
        <mxCell id="YmEJw6Arg7stpx3TM6Hh-1" value="" style="endArrow=none;html=1;rounded=0;fontSize=12;startSize=8;endSize=8;curved=1;strokeWidth=2;" edge="1" parent="1">
          <mxGeometry width="50" height="50" relative="1" as="geometry">
            <mxPoint x="505" y="567.5" as="sourcePoint" />
            <mxPoint x="565" y="510" as="targetPoint" />
          </mxGeometry>
        </mxCell>
        <mxCell id="YmEJw6Arg7stpx3TM6Hh-4" value="" style="endArrow=none;html=1;rounded=0;strokeWidth=2;entryX=0;entryY=0.75;entryDx=0;entryDy=0;exitX=1;exitY=0;exitDx=0;exitDy=0;" edge="1" parent="1" source="erMzkrZGjhJIGj_i267a-14" target="erMzkrZGjhJIGj_i267a-36">
          <mxGeometry width="50" height="50" relative="1" as="geometry">
            <mxPoint x="660" y="350" as="sourcePoint" />
            <mxPoint x="710" y="300" as="targetPoint" />
          </mxGeometry>
        </mxCell>
        <mxCell id="YmEJw6Arg7stpx3TM6Hh-5" value="" style="endArrow=none;html=1;rounded=0;strokeWidth=2;" edge="1" parent="1">
          <mxGeometry width="50" height="50" relative="1" as="geometry">
            <mxPoint x="720" y="300" as="sourcePoint" />
            <mxPoint x="752.5" y="330" as="targetPoint" />
          </mxGeometry>
        </mxCell>
        <mxCell id="YmEJw6Arg7stpx3TM6Hh-7" value="" style="endArrow=none;html=1;rounded=0;strokeWidth=2;" edge="1" parent="1" source="erMzkrZGjhJIGj_i267a-24">
          <mxGeometry width="50" height="50" relative="1" as="geometry">
            <mxPoint x="965" y="290" as="sourcePoint" />
            <mxPoint x="925" y="400" as="targetPoint" />
          </mxGeometry>
        </mxCell>
        <mxCell id="YmEJw6Arg7stpx3TM6Hh-8" value="" style="endArrow=none;html=1;rounded=0;strokeWidth=2;" edge="1" parent="1" source="erMzkrZGjhJIGj_i267a-24">
          <mxGeometry width="50" height="50" relative="1" as="geometry">
            <mxPoint x="965" y="220" as="sourcePoint" />
            <mxPoint x="925" y="330" as="targetPoint" />
          </mxGeometry>
        </mxCell>
        <mxCell id="YmEJw6Arg7stpx3TM6Hh-9" value="" style="endArrow=none;html=1;rounded=0;strokeWidth=2;" edge="1" parent="1" source="erMzkrZGjhJIGj_i267a-24">
          <mxGeometry width="50" height="50" relative="1" as="geometry">
            <mxPoint x="965" y="170" as="sourcePoint" />
            <mxPoint x="925" y="280" as="targetPoint" />
          </mxGeometry>
        </mxCell>
        <mxCell id="YmEJw6Arg7stpx3TM6Hh-10" value="" style="endArrow=none;html=1;rounded=0;strokeWidth=2;" edge="1" parent="1" source="erMzkrZGjhJIGj_i267a-24">
          <mxGeometry width="50" height="50" relative="1" as="geometry">
            <mxPoint x="965" y="110" as="sourcePoint" />
            <mxPoint x="925" y="220" as="targetPoint" />
          </mxGeometry>
        </mxCell>
        <mxCell id="YmEJw6Arg7stpx3TM6Hh-11" value="" style="endArrow=none;html=1;rounded=0;strokeWidth=2;" edge="1" parent="1" source="erMzkrZGjhJIGj_i267a-24">
          <mxGeometry width="50" height="50" relative="1" as="geometry">
            <mxPoint x="962.5" y="50" as="sourcePoint" />
            <mxPoint x="922.5" y="160" as="targetPoint" />
          </mxGeometry>
        </mxCell>
        <mxCell id="YmEJw6Arg7stpx3TM6Hh-12" value="" style="endArrow=none;html=1;rounded=0;strokeWidth=2;" edge="1" parent="1" source="erMzkrZGjhJIGj_i267a-24">
          <mxGeometry width="50" height="50" relative="1" as="geometry">
            <mxPoint x="962.5" y="-10" as="sourcePoint" />
            <mxPoint x="922.5" y="100" as="targetPoint" />
          </mxGeometry>
        </mxCell>
        <mxCell id="YmEJw6Arg7stpx3TM6Hh-13" value="" style="endArrow=none;html=1;rounded=0;strokeWidth=2;exitX=0.393;exitY=0.984;exitDx=0;exitDy=0;exitPerimeter=0;" edge="1" parent="1" source="erMzkrZGjhJIGj_i267a-29">
          <mxGeometry width="50" height="50" relative="1" as="geometry">
            <mxPoint x="855" y="430" as="sourcePoint" />
            <mxPoint x="815" y="540" as="targetPoint" />
          </mxGeometry>
        </mxCell>
        <mxCell id="YmEJw6Arg7stpx3TM6Hh-14" value="Depends on" style="text;html=1;align=center;verticalAlign=middle;whiteSpace=wrap;rounded=0;" vertex="1" parent="1">
          <mxGeometry x="410" y="110" width="90" height="30" as="geometry" />
        </mxCell>
        <mxCell id="YmEJw6Arg7stpx3TM6Hh-15" value="Depends on" style="text;html=1;align=center;verticalAlign=middle;whiteSpace=wrap;rounded=0;" vertex="1" parent="1">
          <mxGeometry x="610" y="200" width="90" height="30" as="geometry" />
        </mxCell>
        <mxCell id="YmEJw6Arg7stpx3TM6Hh-16" value="Depends on" style="text;html=1;align=center;verticalAlign=middle;whiteSpace=wrap;rounded=0;" vertex="1" parent="1">
          <mxGeometry x="552.5" y="440" width="90" height="30" as="geometry" />
        </mxCell>
        <mxCell id="YmEJw6Arg7stpx3TM6Hh-17" value="" style="endArrow=none;html=1;rounded=0;fontSize=12;startSize=8;endSize=8;curved=1;strokeWidth=2;exitX=0.424;exitY=0.697;exitDx=0;exitDy=0;exitPerimeter=0;entryX=0.667;entryY=0.576;entryDx=0;entryDy=0;entryPerimeter=0;" edge="1" parent="1" target="erMzkrZGjhJIGj_i267a-5">
          <mxGeometry width="50" height="50" relative="1" as="geometry">
            <mxPoint x="505" y="430" as="sourcePoint" />
            <mxPoint x="720" y="430" as="targetPoint" />
          </mxGeometry>
        </mxCell>
        <mxCell id="YmEJw6Arg7stpx3TM6Hh-18" value="" style="endArrow=none;html=1;rounded=0;fontSize=12;startSize=8;endSize=8;curved=1;strokeWidth=2;" edge="1" parent="1">
          <mxGeometry width="50" height="50" relative="1" as="geometry">
            <mxPoint x="730" y="430" as="sourcePoint" />
            <mxPoint x="730" y="100" as="targetPoint" />
            <Array as="points" />
          </mxGeometry>
        </mxCell>
        <mxCell id="YmEJw6Arg7stpx3TM6Hh-19" value="" style="endArrow=classic;html=1;rounded=0;strokeWidth=2;entryX=0;entryY=0.5;entryDx=0;entryDy=0;" edge="1" parent="1" target="erMzkrZGjhJIGj_i267a-33">
          <mxGeometry width="50" height="50" relative="1" as="geometry">
            <mxPoint x="730" y="100" as="sourcePoint" />
            <mxPoint x="780" y="50" as="targetPoint" />
          </mxGeometry>
        </mxCell>
        <mxCell id="QlXUa74JVAM-bTtjVXWz-1" value="&lt;li class=&quot;&quot; data-end=&quot;1011&quot; data-start=&quot;745&quot;&gt;&lt;p class=&quot;&quot; data-end=&quot;1011&quot; data-start=&quot;747&quot;&gt;&lt;strong data-end=&quot;758&quot; data-start=&quot;747&quot;&gt;Include&lt;/strong&gt;: Typically used when one use case always involves another. For instance, if logging in always requires validating credentials (e.g., username and password), you might connect the &lt;strong data-end=&quot;947&quot; data-start=&quot;938&quot;&gt;Login&lt;/strong&gt; use case to another use case, such as &lt;strong data-end=&quot;1010&quot; data-start=&quot;986&quot;&gt;Validate Credentials&lt;/strong&gt;.&lt;/p&gt;&lt;br&gt;&lt;/li&gt;&lt;br&gt;&lt;li class=&quot;&quot; data-end=&quot;1318&quot; data-start=&quot;1015&quot;&gt;&lt;br&gt;&lt;p class=&quot;&quot; data-end=&quot;1318&quot; data-start=&quot;1017&quot;&gt;&lt;strong data-end=&quot;1027&quot; data-start=&quot;1017&quot;&gt;Extend&lt;/strong&gt;: This is used when a use case has additional behavior that is optionally triggered. For example, you might have an optional use case like &lt;strong data-end=&quot;1185&quot; data-start=&quot;1166&quot;&gt;Forgot Password&lt;/strong&gt; that extends &lt;strong data-end=&quot;1208&quot; data-start=&quot;1199&quot;&gt;Login&lt;/strong&gt;. This would happen if the &lt;strong data-end=&quot;1248&quot; data-start=&quot;1235&quot;&gt;Passenger&lt;/strong&gt; actor chooses to reset their password instead of logging in normally.&lt;/p&gt;&lt;br&gt;&lt;/li&gt;&lt;br&gt;&lt;li class=&quot;&quot; data-end=&quot;1619&quot; data-start=&quot;1322&quot;&gt;&lt;br&gt;&lt;p class=&quot;&quot; data-end=&quot;1619&quot; data-start=&quot;1324&quot;&gt;&lt;strong data-end=&quot;1338&quot; data-start=&quot;1324&quot;&gt;Dependency&lt;/strong&gt;: A dependency shows that one use case relies on another for its functionality. For example, &lt;strong data-end=&quot;1449&quot; data-start=&quot;1431&quot;&gt;Create Account&lt;/strong&gt; would be required by the &lt;strong data-end=&quot;1495&quot; data-start=&quot;1475&quot;&gt;Potential Member&lt;/strong&gt; actor before they can proceed to the &lt;strong data-end=&quot;1542&quot; data-start=&quot;1533&quot;&gt;Login&lt;/strong&gt; use case, so there is a dependency between &lt;strong data-end=&quot;1604&quot; data-start=&quot;1586&quot;&gt;Create Account&lt;/strong&gt; and &lt;strong data-end=&quot;1618&quot; data-start=&quot;1609&quot;&gt;Login&lt;/strong&gt;.&lt;/p&gt;&lt;/li&gt;&lt;li class=&quot;&quot; data-end=&quot;1619&quot; data-start=&quot;1322&quot;&gt;&lt;p class=&quot;&quot; data-end=&quot;1619&quot; data-start=&quot;1324&quot;&gt;&lt;br&gt;&lt;/p&gt;&lt;/li&gt;&lt;li class=&quot;&quot; data-end=&quot;1619&quot; data-start=&quot;1322&quot;&gt;&lt;ol data-end=&quot;1510&quot; data-start=&quot;810&quot;&gt;&lt;li class=&quot;&quot; data-end=&quot;1159&quot; data-start=&quot;810&quot;&gt;&lt;p class=&quot;&quot; data-end=&quot;1159&quot; data-start=&quot;813&quot;&gt;&lt;strong data-end=&quot;824&quot; data-start=&quot;813&quot;&gt;Include&lt;/strong&gt;: If the cancellation is always possible after booking (meaning &lt;strong data-end=&quot;903&quot; data-start=&quot;888&quot;&gt;CANCEL BOOK&lt;/strong&gt; is an integral part of the &lt;strong data-end=&quot;944&quot; data-start=&quot;931&quot;&gt;BOOK RIDE&lt;/strong&gt; use case), you might consider using an &lt;strong data-end=&quot;995&quot; data-start=&quot;984&quot;&gt;Include&lt;/strong&gt; relationship. However, &lt;strong data-end=&quot;1034&quot; data-start=&quot;1019&quot;&gt;CANCEL BOOK&lt;/strong&gt; wouldn&#39;t always be part of &lt;strong data-end=&quot;1075&quot; data-start=&quot;1062&quot;&gt;BOOK RIDE&lt;/strong&gt; unless you want to imply that cancellation is a part of the booking process itself.&lt;/p&gt;&lt;br/&gt;&lt;/li&gt;&lt;br/&gt;&lt;li class=&quot;&quot; data-end=&quot;1510&quot; data-start=&quot;1161&quot;&gt;&lt;br/&gt;&lt;p class=&quot;&quot; data-end=&quot;1510&quot; data-start=&quot;1164&quot;&gt;&lt;strong data-end=&quot;1174&quot; data-start=&quot;1164&quot;&gt;Extend&lt;/strong&gt;: The more common and appropriate relationship would be &lt;strong data-end=&quot;1240&quot; data-start=&quot;1230&quot;&gt;Extend&lt;/strong&gt; in this case. &lt;strong data-end=&quot;1270&quot; data-start=&quot;1255&quot;&gt;CANCEL BOOK&lt;/strong&gt; could &lt;strong data-end=&quot;1287&quot; data-start=&quot;1277&quot;&gt;extend&lt;/strong&gt; &lt;strong data-end=&quot;1301&quot; data-start=&quot;1288&quot;&gt;BOOK RIDE&lt;/strong&gt;, meaning that the cancel action is an optional action that extends the booking process, triggered under certain conditions (for example, if the passenger chooses to cancel the booking after it has been made).&lt;/p&gt;&lt;br/&gt;&lt;/li&gt;&lt;br/&gt;&lt;/ol&gt;&lt;h3 class=&quot;&quot; data-end=&quot;1542&quot; data-start=&quot;1512&quot;&gt;The Use of &lt;strong data-end=&quot;1541&quot; data-start=&quot;1527&quot;&gt;Depends On&lt;/strong&gt;:&lt;/h3&gt;&lt;p class=&quot;&quot; data-end=&quot;1619&quot; data-start=&quot;1324&quot;&gt;&lt;br/&gt;&lt;br/&gt;&lt;/p&gt;&lt;p class=&quot;&quot; data-end=&quot;2016&quot; data-start=&quot;1543&quot;&gt;In your case, using &lt;strong data-end=&quot;1577&quot; data-start=&quot;1563&quot;&gt;depends on&lt;/strong&gt; could be understood, but it&#39;s not the most conventional or precise way to represent this relationship. &lt;strong data-end=&quot;1695&quot; data-start=&quot;1681&quot;&gt;Depends on&lt;/strong&gt; would typically suggest that &lt;strong data-end=&quot;1740&quot; data-start=&quot;1725&quot;&gt;CANCEL BOOK&lt;/strong&gt; can only occur if &lt;strong data-end=&quot;1772&quot; data-start=&quot;1759&quot;&gt;BOOK RIDE&lt;/strong&gt; has been successfully completed, which is logically correct. But it’s usually better to express this conditional relationship using &lt;strong data-end=&quot;1915&quot; data-start=&quot;1905&quot;&gt;Extend&lt;/strong&gt; (if cancellation is an optional follow-up action) or &lt;strong data-end=&quot;1980&quot; data-start=&quot;1969&quot;&gt;Include&lt;/strong&gt; (if it’s mandatory in the process).&lt;/p&gt;&lt;/li&gt;" style="text;html=1;align=center;verticalAlign=middle;whiteSpace=wrap;rounded=0;" vertex="1" parent="1">
          <mxGeometry x="170" y="1010" width="690" height="770" as="geometry" />
        </mxCell>
      </root>
    </mxGraphModel>
  </diagram>
  <diagram name="FINAL USE-CASE" id="1Qi2E0Y4BfuviKeVwwP7">
    <mxGraphModel grid="0" page="1" gridSize="10" guides="1" tooltips="1" connect="1" arrows="1" fold="1" pageScale="1" pageWidth="827" pageHeight="1169" background="light-dark(#808080,#121212)" math="0" shadow="0">
      <root>
        <mxCell id="0" />
        <mxCell id="1" parent="0" />
        <mxCell id="XjT8wzlENBx4cNednkqP-4" value="" style="rounded=0;whiteSpace=wrap;html=1;" vertex="1" parent="1">
          <mxGeometry x="201" y="78" width="425" height="585" as="geometry" />
        </mxCell>
        <mxCell id="XjT8wzlENBx4cNednkqP-5" value="&lt;h1&gt;&lt;b&gt;CSUTrike - CSU-G&#39;s Tricycle Booking PLatform&lt;/b&gt;&lt;/h1&gt;" style="text;html=1;align=left;verticalAlign=middle;whiteSpace=wrap;rounded=0;" vertex="1" parent="1">
          <mxGeometry x="221" y="100" width="331" height="66" as="geometry" />
        </mxCell>
        <mxCell id="XjT8wzlENBx4cNednkqP-6" value="Actor" style="shape=umlActor;verticalLabelPosition=bottom;verticalAlign=top;html=1;outlineConnect=0;" vertex="1" parent="1">
          <mxGeometry x="49" y="281" width="90" height="180" as="geometry" />
        </mxCell>
        <mxCell id="XjT8wzlENBx4cNednkqP-7" value="PASSENGER" style="text;html=1;align=center;verticalAlign=middle;resizable=0;points=[];autosize=1;strokeColor=none;fillColor=default;" vertex="1" parent="1">
          <mxGeometry x="49" y="468" width="92" height="26" as="geometry" />
        </mxCell>
        <mxCell id="XjT8wzlENBx4cNednkqP-8" value="&lt;font style=&quot;font-size: 15px;&quot;&gt;LOGIN&lt;/font&gt;" style="ellipse;whiteSpace=wrap;html=1;" vertex="1" parent="1">
          <mxGeometry x="248" y="171" width="120" height="80" as="geometry" />
        </mxCell>
        <mxCell id="XjT8wzlENBx4cNednkqP-9" value="&lt;font style=&quot;font-size: 15px;&quot;&gt;CREATE ACCOUNT&lt;/font&gt;" style="ellipse;whiteSpace=wrap;html=1;" vertex="1" parent="1">
          <mxGeometry x="460" y="171" width="120" height="80" as="geometry" />
        </mxCell>
        <mxCell id="XjT8wzlENBx4cNednkqP-10" value="" style="endArrow=none;html=1;rounded=0;exitX=0;exitY=0.5;exitDx=0;exitDy=0;strokeWidth=2;" edge="1" parent="1" source="XjT8wzlENBx4cNednkqP-8" target="XjT8wzlENBx4cNednkqP-6">
          <mxGeometry width="50" height="50" relative="1" as="geometry">
            <mxPoint x="325" y="381" as="sourcePoint" />
            <mxPoint x="375" y="331" as="targetPoint" />
          </mxGeometry>
        </mxCell>
        <mxCell id="XjT8wzlENBx4cNednkqP-11" value="" style="endArrow=open;html=1;rounded=0;exitX=0;exitY=0.5;exitDx=0;exitDy=0;strokeWidth=2;entryX=1;entryY=0.5;entryDx=0;entryDy=0;strokeColor=default;startArrow=none;startFill=0;endFill=0;" edge="1" parent="1" source="XjT8wzlENBx4cNednkqP-9" target="XjT8wzlENBx4cNednkqP-8">
          <mxGeometry width="50" height="50" relative="1" as="geometry">
            <mxPoint x="351" y="272" as="sourcePoint" />
            <mxPoint x="256" y="324" as="targetPoint" />
          </mxGeometry>
        </mxCell>
        <mxCell id="XjT8wzlENBx4cNednkqP-12" value="&amp;lt;&amp;lt;extends&amp;gt;&amp;gt;" style="text;html=1;align=center;verticalAlign=middle;whiteSpace=wrap;rounded=0;" vertex="1" parent="1">
          <mxGeometry x="387" y="185" width="60" height="30" as="geometry" />
        </mxCell>
        <mxCell id="KaT44PiGJw42yf50C-xi-1" value="&lt;span style=&quot;font-size: 15px;&quot;&gt;BOOK RIDE&lt;/span&gt;" style="ellipse;whiteSpace=wrap;html=1;" vertex="1" parent="1">
          <mxGeometry x="248" y="263" width="120" height="80" as="geometry" />
        </mxCell>
        <mxCell id="KaT44PiGJw42yf50C-xi-2" value="" style="endArrow=none;html=1;rounded=0;exitX=0;exitY=0.5;exitDx=0;exitDy=0;strokeWidth=2;" edge="1" parent="1" source="KaT44PiGJw42yf50C-xi-1" target="XjT8wzlENBx4cNednkqP-6">
          <mxGeometry width="50" height="50" relative="1" as="geometry">
            <mxPoint x="258" y="221" as="sourcePoint" />
            <mxPoint x="163" y="273" as="targetPoint" />
          </mxGeometry>
        </mxCell>
        <mxCell id="KaT44PiGJw42yf50C-xi-4" value="&lt;font style=&quot;font-size: 15px;&quot;&gt;CANCEL RIDE&lt;/font&gt;" style="ellipse;whiteSpace=wrap;html=1;" vertex="1" parent="1">
          <mxGeometry x="460" y="263" width="120" height="80" as="geometry" />
        </mxCell>
        <mxCell id="KaT44PiGJw42yf50C-xi-5" value="" style="endArrow=open;html=1;rounded=0;exitX=0;exitY=0.5;exitDx=0;exitDy=0;strokeWidth=2;entryX=1;entryY=0.5;entryDx=0;entryDy=0;strokeColor=default;startArrow=none;startFill=0;endFill=0;" edge="1" parent="1" source="KaT44PiGJw42yf50C-xi-4" target="KaT44PiGJw42yf50C-xi-1">
          <mxGeometry width="50" height="50" relative="1" as="geometry">
            <mxPoint x="447" y="306" as="sourcePoint" />
            <mxPoint x="368" y="306" as="targetPoint" />
          </mxGeometry>
        </mxCell>
        <mxCell id="FCeNl9HaYY4bow_F1sNg-1" value="&amp;lt;&amp;lt;extends&amp;gt;&amp;gt;" style="text;html=1;align=center;verticalAlign=middle;whiteSpace=wrap;rounded=0;" vertex="1" parent="1">
          <mxGeometry x="391" y="277" width="60" height="30" as="geometry" />
        </mxCell>
        <mxCell id="FCeNl9HaYY4bow_F1sNg-2" value="&lt;span style=&quot;font-size: 15px;&quot;&gt;EDIT INFO&lt;/span&gt;" style="ellipse;whiteSpace=wrap;html=1;" vertex="1" parent="1">
          <mxGeometry x="248" y="453" width="120" height="80" as="geometry" />
        </mxCell>
        <mxCell id="FCeNl9HaYY4bow_F1sNg-3" value="" style="endArrow=none;html=1;rounded=0;exitX=0;exitY=0.5;exitDx=0;exitDy=0;strokeWidth=2;" edge="1" parent="1" source="FCeNl9HaYY4bow_F1sNg-2" target="XjT8wzlENBx4cNednkqP-6">
          <mxGeometry width="50" height="50" relative="1" as="geometry">
            <mxPoint x="258" y="313" as="sourcePoint" />
            <mxPoint x="163" y="303" as="targetPoint" />
          </mxGeometry>
        </mxCell>
        <mxCell id="FCeNl9HaYY4bow_F1sNg-4" value="&lt;span style=&quot;font-size: 15px;&quot;&gt;VIEW&lt;/span&gt;&lt;div&gt;&lt;span style=&quot;font-size: 15px;&quot;&gt;BOOKING&lt;/span&gt;&lt;/div&gt;&lt;div&gt;&lt;span style=&quot;font-size: 15px;&quot;&gt;HISTORY&lt;/span&gt;&lt;/div&gt;" style="ellipse;whiteSpace=wrap;html=1;" vertex="1" parent="1">
          <mxGeometry x="248" y="554" width="120" height="80" as="geometry" />
        </mxCell>
        <mxCell id="FCeNl9HaYY4bow_F1sNg-5" value="" style="endArrow=none;html=1;rounded=0;exitX=0;exitY=0.5;exitDx=0;exitDy=0;strokeWidth=2;" edge="1" parent="1" source="FCeNl9HaYY4bow_F1sNg-4" target="XjT8wzlENBx4cNednkqP-6">
          <mxGeometry width="50" height="50" relative="1" as="geometry">
            <mxPoint x="258" y="410" as="sourcePoint" />
            <mxPoint x="163" y="334" as="targetPoint" />
          </mxGeometry>
        </mxCell>
        <mxCell id="FCeNl9HaYY4bow_F1sNg-6" value="&lt;font style=&quot;font-size: 15px;&quot;&gt;BOOKED RIDES&lt;/font&gt;" style="ellipse;whiteSpace=wrap;html=1;" vertex="1" parent="1">
          <mxGeometry x="460" y="554" width="120" height="80" as="geometry" />
        </mxCell>
        <mxCell id="FCeNl9HaYY4bow_F1sNg-7" value="" style="endArrow=none;html=1;rounded=0;exitX=0;exitY=0.5;exitDx=0;exitDy=0;strokeWidth=2;entryX=1;entryY=0.5;entryDx=0;entryDy=0;strokeColor=default;startArrow=open;startFill=0;endFill=0;" edge="1" parent="1" source="FCeNl9HaYY4bow_F1sNg-6" target="FCeNl9HaYY4bow_F1sNg-4">
          <mxGeometry width="50" height="50" relative="1" as="geometry">
            <mxPoint x="470" y="313" as="sourcePoint" />
            <mxPoint x="378" y="313" as="targetPoint" />
          </mxGeometry>
        </mxCell>
        <mxCell id="FCeNl9HaYY4bow_F1sNg-8" value="&amp;lt;&amp;lt;depends on&amp;gt;&amp;gt;" style="text;html=1;align=center;verticalAlign=middle;whiteSpace=wrap;rounded=0;" vertex="1" parent="1">
          <mxGeometry x="367" y="563" width="95" height="30" as="geometry" />
        </mxCell>
        <mxCell id="FCeNl9HaYY4bow_F1sNg-9" value="" style="rounded=0;whiteSpace=wrap;html=1;" vertex="1" parent="1">
          <mxGeometry x="1028" y="78" width="425" height="501" as="geometry" />
        </mxCell>
        <mxCell id="FCeNl9HaYY4bow_F1sNg-10" value="&lt;h1&gt;&lt;b&gt;CSUTrike - CSU-G&#39;s Tricycle Booking PLatform&lt;/b&gt;&lt;/h1&gt;" style="text;html=1;align=left;verticalAlign=middle;whiteSpace=wrap;rounded=0;" vertex="1" parent="1">
          <mxGeometry x="1052" y="100" width="331" height="66" as="geometry" />
        </mxCell>
        <mxCell id="FCeNl9HaYY4bow_F1sNg-11" value="Actor" style="shape=umlActor;verticalLabelPosition=bottom;verticalAlign=top;html=1;outlineConnect=0;" vertex="1" parent="1">
          <mxGeometry x="871" y="263" width="90" height="180" as="geometry" />
        </mxCell>
        <mxCell id="FCeNl9HaYY4bow_F1sNg-12" value="DRIVER" style="text;html=1;align=center;verticalAlign=middle;resizable=0;points=[];autosize=1;strokeColor=none;fillColor=default;" vertex="1" parent="1">
          <mxGeometry x="884.5" y="446" width="63" height="26" as="geometry" />
        </mxCell>
        <mxCell id="ePUjGjh3mIDfzhiirgS9-1" value="&lt;font style=&quot;font-size: 15px;&quot;&gt;LOGIN&lt;/font&gt;" style="ellipse;whiteSpace=wrap;html=1;" vertex="1" parent="1">
          <mxGeometry x="1050" y="171" width="120" height="80" as="geometry" />
        </mxCell>
        <mxCell id="ePUjGjh3mIDfzhiirgS9-3" value="" style="endArrow=none;html=1;rounded=0;entryX=0;entryY=0.5;entryDx=0;entryDy=0;strokeWidth=2;" edge="1" parent="1" source="FCeNl9HaYY4bow_F1sNg-11" target="ePUjGjh3mIDfzhiirgS9-1">
          <mxGeometry width="50" height="50" relative="1" as="geometry">
            <mxPoint x="1002" y="369" as="sourcePoint" />
            <mxPoint x="1052" y="319" as="targetPoint" />
          </mxGeometry>
        </mxCell>
        <mxCell id="ePUjGjh3mIDfzhiirgS9-6" value="&lt;font style=&quot;font-size: 15px;&quot;&gt;ACCEPT BOOKINGS&lt;/font&gt;" style="ellipse;whiteSpace=wrap;html=1;" vertex="1" parent="1">
          <mxGeometry x="1050" y="267" width="120" height="80" as="geometry" />
        </mxCell>
        <mxCell id="ePUjGjh3mIDfzhiirgS9-7" value="&lt;font style=&quot;font-size: 15px;&quot;&gt;DECLINE BOOKINGS&lt;/font&gt;" style="ellipse;whiteSpace=wrap;html=1;" vertex="1" parent="1">
          <mxGeometry x="1050" y="367" width="120" height="80" as="geometry" />
        </mxCell>
        <mxCell id="ePUjGjh3mIDfzhiirgS9-8" value="" style="endArrow=none;html=1;rounded=0;entryX=0;entryY=0.5;entryDx=0;entryDy=0;strokeWidth=2;" edge="1" parent="1" source="FCeNl9HaYY4bow_F1sNg-11" target="ePUjGjh3mIDfzhiirgS9-6">
          <mxGeometry width="50" height="50" relative="1" as="geometry">
            <mxPoint x="985" y="316" as="sourcePoint" />
            <mxPoint x="1062" y="235" as="targetPoint" />
          </mxGeometry>
        </mxCell>
        <mxCell id="ePUjGjh3mIDfzhiirgS9-9" value="" style="endArrow=none;html=1;rounded=0;entryX=0;entryY=0.5;entryDx=0;entryDy=0;strokeWidth=2;" edge="1" parent="1" source="FCeNl9HaYY4bow_F1sNg-11" target="ePUjGjh3mIDfzhiirgS9-7">
          <mxGeometry width="50" height="50" relative="1" as="geometry">
            <mxPoint x="995" y="326" as="sourcePoint" />
            <mxPoint x="1072" y="245" as="targetPoint" />
          </mxGeometry>
        </mxCell>
        <mxCell id="ePUjGjh3mIDfzhiirgS9-10" value="&lt;span style=&quot;font-size: 15px;&quot;&gt;4&lt;/span&gt;&lt;div&gt;&lt;span style=&quot;font-size: 15px;&quot;&gt;PASSENGER&lt;/span&gt;&lt;/div&gt;&lt;div&gt;&lt;span style=&quot;font-size: 15px;&quot;&gt;QUOTA&lt;/span&gt;&lt;/div&gt;" style="ellipse;whiteSpace=wrap;html=1;" vertex="1" parent="1">
          <mxGeometry x="1303" y="367" width="120" height="80" as="geometry" />
        </mxCell>
        <mxCell id="ePUjGjh3mIDfzhiirgS9-12" value="" style="endArrow=open;html=1;rounded=0;entryX=0;entryY=0.5;entryDx=0;entryDy=0;strokeWidth=2;endFill=0;startFill=0;startArrow=none;exitX=1;exitY=0.5;exitDx=0;exitDy=0;" edge="1" parent="1" source="ePUjGjh3mIDfzhiirgS9-7" target="ePUjGjh3mIDfzhiirgS9-10">
          <mxGeometry width="50" height="50" relative="1" as="geometry">
            <mxPoint x="1182" y="235" as="sourcePoint" />
            <mxPoint x="1313" y="233" as="targetPoint" />
          </mxGeometry>
        </mxCell>
        <mxCell id="ePUjGjh3mIDfzhiirgS9-13" value="&amp;lt;&amp;lt;depends on&amp;gt;&amp;gt;" style="text;html=1;align=center;verticalAlign=middle;whiteSpace=wrap;rounded=0;" vertex="1" parent="1">
          <mxGeometry x="1193" y="379" width="95" height="30" as="geometry" />
        </mxCell>
        <mxCell id="ePUjGjh3mIDfzhiirgS9-14" value="&lt;font style=&quot;font-size: 15px;&quot;&gt;VIEW&lt;/font&gt;&lt;div&gt;&lt;font style=&quot;font-size: 15px;&quot;&gt;CURRENT BOOKING DETAILS&lt;/font&gt;&lt;/div&gt;" style="ellipse;whiteSpace=wrap;html=1;" vertex="1" parent="1">
          <mxGeometry x="1050" y="468" width="120" height="80" as="geometry" />
        </mxCell>
        <mxCell id="ePUjGjh3mIDfzhiirgS9-15" value="" style="endArrow=none;html=1;rounded=0;entryX=0;entryY=0.5;entryDx=0;entryDy=0;strokeWidth=2;" edge="1" parent="1" source="FCeNl9HaYY4bow_F1sNg-11" target="ePUjGjh3mIDfzhiirgS9-14">
          <mxGeometry width="50" height="50" relative="1" as="geometry">
            <mxPoint x="985" y="387" as="sourcePoint" />
            <mxPoint x="1062" y="429" as="targetPoint" />
          </mxGeometry>
        </mxCell>
        <mxCell id="ePUjGjh3mIDfzhiirgS9-16" value="" style="rounded=0;whiteSpace=wrap;html=1;" vertex="1" parent="1">
          <mxGeometry x="1919" y="78" width="425" height="733" as="geometry" />
        </mxCell>
        <mxCell id="ePUjGjh3mIDfzhiirgS9-17" value="Actor" style="shape=umlActor;verticalLabelPosition=bottom;verticalAlign=top;html=1;outlineConnect=0;" vertex="1" parent="1">
          <mxGeometry x="1707" y="350" width="90" height="180" as="geometry" />
        </mxCell>
        <mxCell id="ePUjGjh3mIDfzhiirgS9-18" value="ADMIN" style="text;html=1;align=center;verticalAlign=middle;resizable=0;points=[];autosize=1;strokeColor=none;fillColor=default;" vertex="1" parent="1">
          <mxGeometry x="1723.5" y="527.5" width="57" height="26" as="geometry" />
        </mxCell>
        <mxCell id="ePUjGjh3mIDfzhiirgS9-19" value="&lt;h1&gt;&lt;b&gt;CSUTrike - CSU-G&#39;s Tricycle Booking PLatform&lt;/b&gt;&lt;/h1&gt;" style="text;html=1;align=left;verticalAlign=middle;whiteSpace=wrap;rounded=0;" vertex="1" parent="1">
          <mxGeometry x="1942" y="100" width="331" height="66" as="geometry" />
        </mxCell>
        <mxCell id="ePUjGjh3mIDfzhiirgS9-20" value="&lt;font style=&quot;font-size: 15px;&quot;&gt;VIEW ACTIVE&lt;/font&gt;&lt;div&gt;&lt;font style=&quot;font-size: 15px;&quot;&gt;AND AVAILABLE DRIVERS&lt;/font&gt;&lt;/div&gt;" style="ellipse;whiteSpace=wrap;html=1;" vertex="1" parent="1">
          <mxGeometry x="2150" y="143.67" width="134" height="89.33" as="geometry" />
        </mxCell>
        <mxCell id="ePUjGjh3mIDfzhiirgS9-21" value="&lt;font style=&quot;font-size: 15px;&quot;&gt;ADD DRIVER&lt;/font&gt;" style="ellipse;whiteSpace=wrap;html=1;" vertex="1" parent="1">
          <mxGeometry x="2225" y="514" width="114.5" height="76.33" as="geometry" />
        </mxCell>
        <mxCell id="ePUjGjh3mIDfzhiirgS9-22" value="&lt;font style=&quot;font-size: 15px;&quot;&gt;ACCEPT OR DECLINE NEW ACCOUNTS&lt;/font&gt;" style="ellipse;whiteSpace=wrap;html=1;" vertex="1" parent="1">
          <mxGeometry x="1978" y="171" width="120" height="80" as="geometry" />
        </mxCell>
        <mxCell id="ePUjGjh3mIDfzhiirgS9-23" value="&lt;font style=&quot;font-size: 15px;&quot;&gt;VIEW CURRENT BOOKING TRANSACTIONS&lt;/font&gt;" style="ellipse;whiteSpace=wrap;html=1;" vertex="1" parent="1">
          <mxGeometry x="2152" y="238" width="150" height="100" as="geometry" />
        </mxCell>
        <mxCell id="ePUjGjh3mIDfzhiirgS9-24" value="&lt;span style=&quot;font-size: 15px;&quot;&gt;DELETE&lt;/span&gt;&lt;div&gt;&lt;span style=&quot;font-size: 15px;&quot;&gt;USERS&lt;/span&gt;&lt;/div&gt;" style="ellipse;whiteSpace=wrap;html=1;" vertex="1" parent="1">
          <mxGeometry x="2197" y="347" width="120" height="80" as="geometry" />
        </mxCell>
        <mxCell id="ePUjGjh3mIDfzhiirgS9-25" value="&lt;font style=&quot;font-size: 15px;&quot;&gt;UPDATE DRIVER INFORMATION&lt;/font&gt;" style="ellipse;whiteSpace=wrap;html=1;" vertex="1" parent="1">
          <mxGeometry x="2084" y="423" width="136.5" height="91" as="geometry" />
        </mxCell>
        <mxCell id="ePUjGjh3mIDfzhiirgS9-26" value="&lt;font style=&quot;font-size: 15px;&quot;&gt;DELETE DRIVER&lt;/font&gt;" style="ellipse;whiteSpace=wrap;html=1;" vertex="1" parent="1">
          <mxGeometry x="1990" y="546" width="103.5" height="69" as="geometry" />
        </mxCell>
        <mxCell id="ePUjGjh3mIDfzhiirgS9-27" value="" style="endArrow=none;html=1;rounded=0;entryX=0.015;entryY=0.628;entryDx=0;entryDy=0;entryPerimeter=0;strokeWidth=2;" edge="1" parent="1" source="ePUjGjh3mIDfzhiirgS9-17" target="ePUjGjh3mIDfzhiirgS9-22">
          <mxGeometry width="50" height="50" relative="1" as="geometry">
            <mxPoint x="2158" y="497" as="sourcePoint" />
            <mxPoint x="2208" y="447" as="targetPoint" />
          </mxGeometry>
        </mxCell>
        <mxCell id="ePUjGjh3mIDfzhiirgS9-28" value="" style="endArrow=none;html=1;rounded=0;strokeWidth=2;" edge="1" parent="1" source="ePUjGjh3mIDfzhiirgS9-17" target="ePUjGjh3mIDfzhiirgS9-23">
          <mxGeometry width="50" height="50" relative="1" as="geometry">
            <mxPoint x="1804" y="349" as="sourcePoint" />
            <mxPoint x="1990" y="231" as="targetPoint" />
          </mxGeometry>
        </mxCell>
        <mxCell id="ePUjGjh3mIDfzhiirgS9-29" value="" style="endArrow=none;html=1;rounded=0;strokeWidth=2;entryX=0;entryY=1;entryDx=0;entryDy=0;" edge="1" parent="1" source="ePUjGjh3mIDfzhiirgS9-17" target="ePUjGjh3mIDfzhiirgS9-20">
          <mxGeometry width="50" height="50" relative="1" as="geometry">
            <mxPoint x="1804" y="369" as="sourcePoint" />
            <mxPoint x="2194" y="298" as="targetPoint" />
          </mxGeometry>
        </mxCell>
        <mxCell id="ePUjGjh3mIDfzhiirgS9-30" value="" style="endArrow=none;html=1;rounded=0;strokeWidth=2;entryX=0;entryY=0.5;entryDx=0;entryDy=0;" edge="1" parent="1" source="ePUjGjh3mIDfzhiirgS9-17" target="ePUjGjh3mIDfzhiirgS9-24">
          <mxGeometry width="50" height="50" relative="1" as="geometry">
            <mxPoint x="1804" y="369" as="sourcePoint" />
            <mxPoint x="2194" y="298" as="targetPoint" />
          </mxGeometry>
        </mxCell>
        <mxCell id="ePUjGjh3mIDfzhiirgS9-31" value="" style="endArrow=none;html=1;rounded=0;strokeWidth=2;entryX=0;entryY=0.5;entryDx=0;entryDy=0;" edge="1" parent="1" source="ePUjGjh3mIDfzhiirgS9-17" target="ePUjGjh3mIDfzhiirgS9-25">
          <mxGeometry width="50" height="50" relative="1" as="geometry">
            <mxPoint x="1804" y="377" as="sourcePoint" />
            <mxPoint x="2200" y="379" as="targetPoint" />
          </mxGeometry>
        </mxCell>
        <mxCell id="ePUjGjh3mIDfzhiirgS9-32" value="" style="endArrow=none;html=1;rounded=0;strokeWidth=2;entryX=0;entryY=0.5;entryDx=0;entryDy=0;" edge="1" parent="1" source="ePUjGjh3mIDfzhiirgS9-17" target="ePUjGjh3mIDfzhiirgS9-21">
          <mxGeometry width="50" height="50" relative="1" as="geometry">
            <mxPoint x="1814" y="387" as="sourcePoint" />
            <mxPoint x="2210" y="389" as="targetPoint" />
          </mxGeometry>
        </mxCell>
        <mxCell id="ePUjGjh3mIDfzhiirgS9-33" value="" style="endArrow=none;html=1;rounded=0;strokeWidth=2;entryX=0;entryY=0;entryDx=0;entryDy=0;" edge="1" parent="1" source="ePUjGjh3mIDfzhiirgS9-17" target="ePUjGjh3mIDfzhiirgS9-26">
          <mxGeometry width="50" height="50" relative="1" as="geometry">
            <mxPoint x="1804" y="391" as="sourcePoint" />
            <mxPoint x="2192" y="511" as="targetPoint" />
          </mxGeometry>
        </mxCell>
        <mxCell id="ePUjGjh3mIDfzhiirgS9-34" value="&lt;font style=&quot;font-size: 15px;&quot;&gt;VIEW ALL BOOKING TRANSACTIONS&lt;/font&gt;" style="ellipse;whiteSpace=wrap;html=1;" vertex="1" parent="1">
          <mxGeometry x="1987.75" y="627.5" width="164.25" height="109.5" as="geometry" />
        </mxCell>
        <mxCell id="ePUjGjh3mIDfzhiirgS9-35" value="" style="endArrow=none;html=1;rounded=0;strokeWidth=2;entryX=-0.002;entryY=0.573;entryDx=0;entryDy=0;entryPerimeter=0;" edge="1" parent="1" source="ePUjGjh3mIDfzhiirgS9-17" target="ePUjGjh3mIDfzhiirgS9-34">
          <mxGeometry width="50" height="50" relative="1" as="geometry">
            <mxPoint x="1804" y="399" as="sourcePoint" />
            <mxPoint x="2075" y="534" as="targetPoint" />
          </mxGeometry>
        </mxCell>
        <mxCell id="ePUjGjh3mIDfzhiirgS9-36" value="" style="rounded=0;whiteSpace=wrap;html=1;" vertex="1" parent="1">
          <mxGeometry x="2639" y="84" width="508" height="916" as="geometry" />
        </mxCell>
        <mxCell id="ePUjGjh3mIDfzhiirgS9-37" value="Actor" style="shape=umlActor;verticalLabelPosition=bottom;verticalAlign=top;html=1;outlineConnect=0;" vertex="1" parent="1">
          <mxGeometry x="2507.25" y="289" width="55.5" height="111" as="geometry" />
        </mxCell>
        <mxCell id="ePUjGjh3mIDfzhiirgS9-38" value="&lt;h1&gt;&lt;b&gt;CSUTrike - CSU-G&#39;s Tricycle Booking PLatform&lt;/b&gt;&lt;/h1&gt;" style="text;html=1;align=left;verticalAlign=middle;whiteSpace=wrap;rounded=0;" vertex="1" parent="1">
          <mxGeometry x="2656" y="100" width="331" height="66" as="geometry" />
        </mxCell>
        <mxCell id="ePUjGjh3mIDfzhiirgS9-40" value="PASSENGER" style="text;html=1;align=center;verticalAlign=middle;resizable=0;points=[];autosize=1;strokeColor=none;fillColor=default;" vertex="1" parent="1">
          <mxGeometry x="2489" y="404" width="92" height="26" as="geometry" />
        </mxCell>
        <mxCell id="ePUjGjh3mIDfzhiirgS9-41" value="&lt;font&gt;LOGIN&lt;/font&gt;" style="ellipse;whiteSpace=wrap;html=1;" vertex="1" parent="1">
          <mxGeometry x="2685" y="185" width="70.5" height="47" as="geometry" />
        </mxCell>
        <mxCell id="ePUjGjh3mIDfzhiirgS9-42" value="&lt;font&gt;CREATE ACCOUNT&lt;/font&gt;" style="ellipse;whiteSpace=wrap;html=1;" vertex="1" parent="1">
          <mxGeometry x="2838" y="182.5" width="78" height="52" as="geometry" />
        </mxCell>
        <mxCell id="ePUjGjh3mIDfzhiirgS9-43" value="&amp;lt;&amp;lt;extends&amp;gt;&amp;gt;" style="text;html=1;align=center;verticalAlign=middle;whiteSpace=wrap;rounded=0;" vertex="1" parent="1">
          <mxGeometry x="2772" y="182.5" width="60" height="30" as="geometry" />
        </mxCell>
        <mxCell id="ePUjGjh3mIDfzhiirgS9-44" value="&lt;font&gt;BOOK RIDE&lt;/font&gt;" style="ellipse;whiteSpace=wrap;html=1;" vertex="1" parent="1">
          <mxGeometry x="2682.75" y="245" width="82.5" height="55" as="geometry" />
        </mxCell>
        <mxCell id="ePUjGjh3mIDfzhiirgS9-45" value="&lt;font&gt;CANCEL RIDE&lt;/font&gt;" style="ellipse;whiteSpace=wrap;html=1;" vertex="1" parent="1">
          <mxGeometry x="2840.25" y="248" width="73.5" height="49" as="geometry" />
        </mxCell>
        <mxCell id="ePUjGjh3mIDfzhiirgS9-47" value="&lt;font&gt;EDIT INFO&lt;/font&gt;" style="ellipse;whiteSpace=wrap;html=1;" vertex="1" parent="1">
          <mxGeometry x="2686.5" y="310" width="75" height="50" as="geometry" />
        </mxCell>
        <mxCell id="ePUjGjh3mIDfzhiirgS9-48" value="&lt;span style=&quot;font-size: 11px;&quot;&gt;VIEW BOOKING HISTORY&lt;/span&gt;" style="ellipse;whiteSpace=wrap;html=1;" vertex="1" parent="1">
          <mxGeometry x="2662.5" y="462.5" width="115.5" height="77" as="geometry" />
        </mxCell>
        <mxCell id="ePUjGjh3mIDfzhiirgS9-49" value="&lt;font&gt;BOOKED RIDES&lt;/font&gt;" style="ellipse;whiteSpace=wrap;html=1;" vertex="1" parent="1">
          <mxGeometry x="2881" y="474.5" width="79.5" height="53" as="geometry" />
        </mxCell>
        <mxCell id="ePUjGjh3mIDfzhiirgS9-50" value="&amp;lt;&amp;lt;depends on&amp;gt;&amp;gt;" style="text;html=1;align=center;verticalAlign=middle;whiteSpace=wrap;rounded=0;" vertex="1" parent="1">
          <mxGeometry x="2781" y="468" width="103" height="30" as="geometry" />
        </mxCell>
        <mxCell id="ePUjGjh3mIDfzhiirgS9-51" value="" style="endArrow=none;html=1;rounded=0;entryX=0;entryY=0.5;entryDx=0;entryDy=0;strokeWidth=2;" edge="1" parent="1" source="ePUjGjh3mIDfzhiirgS9-37" target="ePUjGjh3mIDfzhiirgS9-41">
          <mxGeometry width="50" height="50" relative="1" as="geometry">
            <mxPoint x="2708" y="352" as="sourcePoint" />
            <mxPoint x="2758" y="302" as="targetPoint" />
          </mxGeometry>
        </mxCell>
        <mxCell id="ePUjGjh3mIDfzhiirgS9-53" value="" style="endArrow=none;html=1;rounded=0;entryX=0;entryY=0.5;entryDx=0;entryDy=0;exitX=1;exitY=0.5;exitDx=0;exitDy=0;strokeWidth=2;startArrow=open;startFill=0;" edge="1" parent="1" source="ePUjGjh3mIDfzhiirgS9-41" target="ePUjGjh3mIDfzhiirgS9-42">
          <mxGeometry width="50" height="50" relative="1" as="geometry">
            <mxPoint x="2586" y="262" as="sourcePoint" />
            <mxPoint x="2695" y="219" as="targetPoint" />
          </mxGeometry>
        </mxCell>
        <mxCell id="ePUjGjh3mIDfzhiirgS9-54" value="" style="endArrow=none;html=1;rounded=0;entryX=0;entryY=0.5;entryDx=0;entryDy=0;strokeWidth=2;" edge="1" parent="1" source="ePUjGjh3mIDfzhiirgS9-37" target="ePUjGjh3mIDfzhiirgS9-44">
          <mxGeometry width="50" height="50" relative="1" as="geometry">
            <mxPoint x="2586" y="262" as="sourcePoint" />
            <mxPoint x="2695" y="219" as="targetPoint" />
          </mxGeometry>
        </mxCell>
        <mxCell id="ePUjGjh3mIDfzhiirgS9-55" value="" style="endArrow=none;html=1;rounded=0;entryX=0;entryY=0.5;entryDx=0;entryDy=0;exitX=1;exitY=0.5;exitDx=0;exitDy=0;strokeWidth=2;startArrow=open;startFill=0;" edge="1" parent="1" source="ePUjGjh3mIDfzhiirgS9-44" target="ePUjGjh3mIDfzhiirgS9-45">
          <mxGeometry width="50" height="50" relative="1" as="geometry">
            <mxPoint x="2765" y="219" as="sourcePoint" />
            <mxPoint x="2848" y="219" as="targetPoint" />
          </mxGeometry>
        </mxCell>
        <mxCell id="ePUjGjh3mIDfzhiirgS9-56" value="&amp;lt;&amp;lt;extends&amp;gt;&amp;gt;" style="text;html=1;align=center;verticalAlign=middle;whiteSpace=wrap;rounded=0;" vertex="1" parent="1">
          <mxGeometry x="2775" y="248" width="60" height="30" as="geometry" />
        </mxCell>
        <mxCell id="ePUjGjh3mIDfzhiirgS9-57" value="" style="endArrow=none;html=1;rounded=0;entryX=0;entryY=0.5;entryDx=0;entryDy=0;strokeWidth=2;" edge="1" parent="1" source="ePUjGjh3mIDfzhiirgS9-37" target="ePUjGjh3mIDfzhiirgS9-47">
          <mxGeometry width="50" height="50" relative="1" as="geometry">
            <mxPoint x="2600" y="301" as="sourcePoint" />
            <mxPoint x="2693" y="283" as="targetPoint" />
          </mxGeometry>
        </mxCell>
        <mxCell id="ePUjGjh3mIDfzhiirgS9-58" value="" style="endArrow=open;html=1;rounded=0;entryX=0;entryY=0.5;entryDx=0;entryDy=0;exitX=1;exitY=0.5;exitDx=0;exitDy=0;strokeWidth=2;startArrow=none;startFill=0;endFill=0;" edge="1" parent="1" source="ePUjGjh3mIDfzhiirgS9-48" target="ePUjGjh3mIDfzhiirgS9-49">
          <mxGeometry width="50" height="50" relative="1" as="geometry">
            <mxPoint x="2775" y="283" as="sourcePoint" />
            <mxPoint x="2850" y="283" as="targetPoint" />
          </mxGeometry>
        </mxCell>
        <mxCell id="ePUjGjh3mIDfzhiirgS9-59" value="" style="endArrow=none;html=1;rounded=0;entryX=0;entryY=0.5;entryDx=0;entryDy=0;strokeWidth=2;" edge="1" parent="1" source="ePUjGjh3mIDfzhiirgS9-37" target="ePUjGjh3mIDfzhiirgS9-48">
          <mxGeometry width="50" height="50" relative="1" as="geometry">
            <mxPoint x="2599" y="315" as="sourcePoint" />
            <mxPoint x="2697" y="345" as="targetPoint" />
          </mxGeometry>
        </mxCell>
        <mxCell id="ePUjGjh3mIDfzhiirgS9-60" value="Actor" style="shape=umlActor;verticalLabelPosition=bottom;verticalAlign=top;html=1;outlineConnect=0;" vertex="1" parent="1">
          <mxGeometry x="2534" y="619" width="55.5" height="111" as="geometry" />
        </mxCell>
        <mxCell id="ePUjGjh3mIDfzhiirgS9-61" value="DRIVER" style="text;html=1;align=center;verticalAlign=middle;resizable=0;points=[];autosize=1;strokeColor=none;fillColor=default;" vertex="1" parent="1">
          <mxGeometry x="2530.75" y="737" width="63" height="26" as="geometry" />
        </mxCell>
        <mxCell id="ePUjGjh3mIDfzhiirgS9-62" value="VIEW CURRENT BOOKING DETAILS" style="ellipse;whiteSpace=wrap;html=1;" vertex="1" parent="1">
          <mxGeometry x="2661.75" y="370" width="124.5" height="83" as="geometry" />
        </mxCell>
        <mxCell id="ePUjGjh3mIDfzhiirgS9-63" value="" style="endArrow=none;html=1;rounded=0;entryX=0;entryY=0.5;entryDx=0;entryDy=0;strokeWidth=2;" edge="1" parent="1" source="ePUjGjh3mIDfzhiirgS9-37" target="ePUjGjh3mIDfzhiirgS9-62">
          <mxGeometry width="50" height="50" relative="1" as="geometry">
            <mxPoint x="2600" y="315" as="sourcePoint" />
            <mxPoint x="2697" y="345" as="targetPoint" />
          </mxGeometry>
        </mxCell>
        <mxCell id="ePUjGjh3mIDfzhiirgS9-64" value="" style="endArrow=open;html=1;rounded=0;entryX=1;entryY=1;entryDx=0;entryDy=0;strokeWidth=2;exitX=1;exitY=0.5;exitDx=0;exitDy=0;edgeStyle=orthogonalEdgeStyle;startArrow=none;startFill=0;endFill=0;" edge="1" parent="1" source="ePUjGjh3mIDfzhiirgS9-62" target="ePUjGjh3mIDfzhiirgS9-44">
          <mxGeometry width="50" height="50" relative="1" as="geometry">
            <mxPoint x="2573" y="341" as="sourcePoint" />
            <mxPoint x="2693" y="283" as="targetPoint" />
            <Array as="points">
              <mxPoint x="2838" y="412" />
              <mxPoint x="2838" y="292" />
            </Array>
          </mxGeometry>
        </mxCell>
        <mxCell id="ePUjGjh3mIDfzhiirgS9-65" value="&amp;lt;&amp;lt;depends on&amp;gt;&amp;gt;" style="text;html=1;align=center;verticalAlign=middle;whiteSpace=wrap;rounded=0;" vertex="1" parent="1">
          <mxGeometry x="2770" y="374" width="65" height="30" as="geometry" />
        </mxCell>
        <mxCell id="ePUjGjh3mIDfzhiirgS9-66" value="&lt;font&gt;LOGIN&lt;/font&gt;" style="ellipse;whiteSpace=wrap;html=1;" vertex="1" parent="1">
          <mxGeometry x="2681.25" y="663" width="70.5" height="47" as="geometry" />
        </mxCell>
        <mxCell id="ePUjGjh3mIDfzhiirgS9-67" value="&lt;font&gt;ACCEPT BOOKINGS&lt;/font&gt;" style="ellipse;whiteSpace=wrap;html=1;" vertex="1" parent="1">
          <mxGeometry x="2676.75" y="727" width="87" height="58" as="geometry" />
        </mxCell>
        <mxCell id="ePUjGjh3mIDfzhiirgS9-68" value="&lt;font&gt;DECLINE BOOKINGS&lt;/font&gt;" style="ellipse;whiteSpace=wrap;html=1;" vertex="1" parent="1">
          <mxGeometry x="2676.75" y="796" width="87" height="58" as="geometry" />
        </mxCell>
        <mxCell id="ePUjGjh3mIDfzhiirgS9-69" value="&lt;font&gt;VIEW BOOKING DETAILS&lt;/font&gt;" style="ellipse;whiteSpace=wrap;html=1;" vertex="1" parent="1">
          <mxGeometry x="2673" y="593" width="87" height="58" as="geometry" />
        </mxCell>
        <mxCell id="ePUjGjh3mIDfzhiirgS9-70" value="&lt;font&gt;FOUR PASSENGER QUOTA&lt;/font&gt;" style="ellipse;whiteSpace=wrap;html=1;" vertex="1" parent="1">
          <mxGeometry x="2873.5" y="796" width="87" height="58" as="geometry" />
        </mxCell>
        <mxCell id="ePUjGjh3mIDfzhiirgS9-71" value="" style="endArrow=open;html=1;rounded=0;entryX=0;entryY=0.5;entryDx=0;entryDy=0;exitX=1;exitY=0.5;exitDx=0;exitDy=0;strokeWidth=2;startArrow=none;startFill=0;endFill=0;" edge="1" parent="1" source="ePUjGjh3mIDfzhiirgS9-68" target="ePUjGjh3mIDfzhiirgS9-70">
          <mxGeometry width="50" height="50" relative="1" as="geometry">
            <mxPoint x="2784.25" y="595" as="sourcePoint" />
            <mxPoint x="2887.25" y="595" as="targetPoint" />
          </mxGeometry>
        </mxCell>
        <mxCell id="ePUjGjh3mIDfzhiirgS9-72" value="&amp;lt;&amp;lt;depends on&amp;gt;&amp;gt;" style="text;html=1;align=center;verticalAlign=middle;whiteSpace=wrap;rounded=0;" vertex="1" parent="1">
          <mxGeometry x="2777.25" y="799" width="95" height="30" as="geometry" />
        </mxCell>
        <mxCell id="ePUjGjh3mIDfzhiirgS9-80" value="" style="endArrow=none;html=1;rounded=0;entryX=0;entryY=0.5;entryDx=0;entryDy=0;strokeWidth=2;" edge="1" parent="1" source="ePUjGjh3mIDfzhiirgS9-60" target="ePUjGjh3mIDfzhiirgS9-69">
          <mxGeometry width="50" height="50" relative="1" as="geometry">
            <mxPoint x="2838" y="752" as="sourcePoint" />
            <mxPoint x="2888" y="702" as="targetPoint" />
          </mxGeometry>
        </mxCell>
        <mxCell id="ePUjGjh3mIDfzhiirgS9-81" value="" style="endArrow=none;html=1;rounded=0;entryX=0;entryY=0.5;entryDx=0;entryDy=0;strokeWidth=2;" edge="1" parent="1" source="ePUjGjh3mIDfzhiirgS9-60" target="ePUjGjh3mIDfzhiirgS9-66">
          <mxGeometry width="50" height="50" relative="1" as="geometry">
            <mxPoint x="2600" y="671" as="sourcePoint" />
            <mxPoint x="2683" y="632" as="targetPoint" />
          </mxGeometry>
        </mxCell>
        <mxCell id="ePUjGjh3mIDfzhiirgS9-82" value="" style="endArrow=none;html=1;rounded=0;entryX=0;entryY=0.5;entryDx=0;entryDy=0;strokeWidth=2;" edge="1" parent="1" source="ePUjGjh3mIDfzhiirgS9-60" target="ePUjGjh3mIDfzhiirgS9-67">
          <mxGeometry width="50" height="50" relative="1" as="geometry">
            <mxPoint x="2600" y="687" as="sourcePoint" />
            <mxPoint x="2691" y="697" as="targetPoint" />
          </mxGeometry>
        </mxCell>
        <mxCell id="ePUjGjh3mIDfzhiirgS9-83" value="" style="endArrow=none;html=1;rounded=0;entryX=0;entryY=0.5;entryDx=0;entryDy=0;strokeWidth=2;" edge="1" parent="1" source="ePUjGjh3mIDfzhiirgS9-60" target="ePUjGjh3mIDfzhiirgS9-68">
          <mxGeometry width="50" height="50" relative="1" as="geometry">
            <mxPoint x="2600" y="704" as="sourcePoint" />
            <mxPoint x="2687" y="766" as="targetPoint" />
          </mxGeometry>
        </mxCell>
        <mxCell id="ePUjGjh3mIDfzhiirgS9-84" value="Actor" style="shape=umlActor;verticalLabelPosition=bottom;verticalAlign=top;html=1;outlineConnect=0;" vertex="1" parent="1">
          <mxGeometry x="3216.25" y="489" width="55.5" height="111" as="geometry" />
        </mxCell>
        <mxCell id="ePUjGjh3mIDfzhiirgS9-85" value="ADMIN" style="text;html=1;align=center;verticalAlign=middle;resizable=0;points=[];autosize=1;strokeColor=none;fillColor=default;" vertex="1" parent="1">
          <mxGeometry x="3216" y="604" width="57" height="26" as="geometry" />
        </mxCell>
        <mxCell id="ePUjGjh3mIDfzhiirgS9-86" value="ACCEPT OR DECLINE NEW ACCOUNTS" style="ellipse;whiteSpace=wrap;html=1;" vertex="1" parent="1">
          <mxGeometry x="3009" y="235.82999999999998" width="105.5" height="70.33" as="geometry" />
        </mxCell>
        <mxCell id="ePUjGjh3mIDfzhiirgS9-87" value="" style="endArrow=none;html=1;rounded=0;entryX=1;entryY=0.5;entryDx=0;entryDy=0;exitX=0.5;exitY=0;exitDx=0;exitDy=0;strokeWidth=2;startArrow=open;startFill=0;edgeStyle=orthogonalEdgeStyle;" edge="1" parent="1" source="ePUjGjh3mIDfzhiirgS9-86" target="ePUjGjh3mIDfzhiirgS9-42">
          <mxGeometry width="50" height="50" relative="1" as="geometry">
            <mxPoint x="2766" y="219" as="sourcePoint" />
            <mxPoint x="2848" y="219" as="targetPoint" />
          </mxGeometry>
        </mxCell>
        <mxCell id="ePUjGjh3mIDfzhiirgS9-88" value="&amp;lt;&amp;lt;includes&amp;gt;&amp;gt;" style="text;html=1;align=center;verticalAlign=middle;whiteSpace=wrap;rounded=0;" vertex="1" parent="1">
          <mxGeometry x="2955" y="208" width="60" height="30" as="geometry" />
        </mxCell>
        <mxCell id="ePUjGjh3mIDfzhiirgS9-89" value="&lt;font&gt;ADD DRIVER&lt;/font&gt;" style="ellipse;whiteSpace=wrap;html=1;" vertex="1" parent="1">
          <mxGeometry x="3012" y="655.34" width="93.5" height="62.33" as="geometry" />
        </mxCell>
        <mxCell id="ePUjGjh3mIDfzhiirgS9-90" value="" style="endArrow=open;html=1;rounded=0;entryX=0;entryY=0.5;entryDx=0;entryDy=0;exitX=1;exitY=0.5;exitDx=0;exitDy=0;strokeWidth=2;startArrow=none;startFill=0;endFill=0;" edge="1" parent="1" source="ePUjGjh3mIDfzhiirgS9-66" target="ePUjGjh3mIDfzhiirgS9-89">
          <mxGeometry width="50" height="50" relative="1" as="geometry">
            <mxPoint x="2788" y="511" as="sourcePoint" />
            <mxPoint x="2891" y="511" as="targetPoint" />
          </mxGeometry>
        </mxCell>
        <mxCell id="ePUjGjh3mIDfzhiirgS9-91" value="&amp;lt;&amp;lt;depends on&amp;gt;&amp;gt;" style="text;html=1;align=center;verticalAlign=middle;whiteSpace=wrap;rounded=0;" vertex="1" parent="1">
          <mxGeometry x="2843" y="658" width="103" height="30" as="geometry" />
        </mxCell>
        <mxCell id="ePUjGjh3mIDfzhiirgS9-92" value="&lt;font&gt;UPDATE DRIVER INFORMATION&lt;/font&gt;" style="ellipse;whiteSpace=wrap;html=1;" vertex="1" parent="1">
          <mxGeometry x="3000" y="568" width="117.5" height="78.33" as="geometry" />
        </mxCell>
        <mxCell id="ePUjGjh3mIDfzhiirgS9-93" value="&lt;font&gt;DELETE DRIVER&lt;/font&gt;" style="ellipse;whiteSpace=wrap;html=1;" vertex="1" parent="1">
          <mxGeometry x="3010" y="730.67" width="93.5" height="62.33" as="geometry" />
        </mxCell>
        <mxCell id="ePUjGjh3mIDfzhiirgS9-94" value="&lt;font&gt;DELETE PASSENGER ACCOUNT&lt;/font&gt;" style="ellipse;whiteSpace=wrap;html=1;" vertex="1" parent="1">
          <mxGeometry x="3012" y="495" width="93.5" height="62.33" as="geometry" />
        </mxCell>
        <mxCell id="ePUjGjh3mIDfzhiirgS9-95" value="VIEW CURRENT BOOKING TRANSACTIONS" style="ellipse;whiteSpace=wrap;html=1;" vertex="1" parent="1">
          <mxGeometry x="3003" y="408" width="117.5" height="78.33" as="geometry" />
        </mxCell>
        <mxCell id="ePUjGjh3mIDfzhiirgS9-96" value="" style="endArrow=none;html=1;rounded=0;strokeWidth=2;exitX=1;exitY=0.5;exitDx=0;exitDy=0;" edge="1" parent="1" source="ePUjGjh3mIDfzhiirgS9-86" target="ePUjGjh3mIDfzhiirgS9-84">
          <mxGeometry width="50" height="50" relative="1" as="geometry">
            <mxPoint x="2981" y="520" as="sourcePoint" />
            <mxPoint x="3031" y="470" as="targetPoint" />
          </mxGeometry>
        </mxCell>
        <mxCell id="ePUjGjh3mIDfzhiirgS9-97" value="" style="endArrow=none;html=1;rounded=0;strokeWidth=2;exitX=1;exitY=0.5;exitDx=0;exitDy=0;" edge="1" parent="1" source="ePUjGjh3mIDfzhiirgS9-95" target="ePUjGjh3mIDfzhiirgS9-84">
          <mxGeometry width="50" height="50" relative="1" as="geometry">
            <mxPoint x="3122" y="363" as="sourcePoint" />
            <mxPoint x="3208" y="485" as="targetPoint" />
          </mxGeometry>
        </mxCell>
        <mxCell id="ePUjGjh3mIDfzhiirgS9-98" value="" style="endArrow=none;html=1;rounded=0;strokeWidth=2;exitX=1;exitY=0.5;exitDx=0;exitDy=0;" edge="1" parent="1" source="ePUjGjh3mIDfzhiirgS9-94" target="ePUjGjh3mIDfzhiirgS9-84">
          <mxGeometry width="50" height="50" relative="1" as="geometry">
            <mxPoint x="3130" y="448" as="sourcePoint" />
            <mxPoint x="3208" y="504" as="targetPoint" />
          </mxGeometry>
        </mxCell>
        <mxCell id="ePUjGjh3mIDfzhiirgS9-99" value="" style="endArrow=none;html=1;rounded=0;strokeWidth=2;exitX=1;exitY=0.5;exitDx=0;exitDy=0;" edge="1" parent="1" source="ePUjGjh3mIDfzhiirgS9-92" target="ePUjGjh3mIDfzhiirgS9-84">
          <mxGeometry width="50" height="50" relative="1" as="geometry">
            <mxPoint x="3140" y="458" as="sourcePoint" />
            <mxPoint x="3218" y="514" as="targetPoint" />
          </mxGeometry>
        </mxCell>
        <mxCell id="ePUjGjh3mIDfzhiirgS9-100" value="" style="endArrow=none;html=1;rounded=0;strokeWidth=2;exitX=1;exitY=0.5;exitDx=0;exitDy=0;" edge="1" parent="1" source="ePUjGjh3mIDfzhiirgS9-89" target="ePUjGjh3mIDfzhiirgS9-84">
          <mxGeometry width="50" height="50" relative="1" as="geometry">
            <mxPoint x="3150" y="468" as="sourcePoint" />
            <mxPoint x="3147" y="581" as="targetPoint" />
          </mxGeometry>
        </mxCell>
        <mxCell id="ePUjGjh3mIDfzhiirgS9-101" value="" style="endArrow=none;html=1;rounded=0;strokeWidth=2;exitX=1;exitY=0.5;exitDx=0;exitDy=0;" edge="1" parent="1" source="ePUjGjh3mIDfzhiirgS9-93" target="ePUjGjh3mIDfzhiirgS9-84">
          <mxGeometry width="50" height="50" relative="1" as="geometry">
            <mxPoint x="3115" y="697" as="sourcePoint" />
            <mxPoint x="3208" y="563" as="targetPoint" />
          </mxGeometry>
        </mxCell>
        <mxCell id="ePUjGjh3mIDfzhiirgS9-102" value="SAVED BOOKING TRANSACTIONS" style="ellipse;whiteSpace=wrap;html=1;" vertex="1" parent="1">
          <mxGeometry x="2713" y="882" width="134" height="89.33" as="geometry" />
        </mxCell>
        <mxCell id="ePUjGjh3mIDfzhiirgS9-104" value="&lt;font&gt;VIEW ALL BOOKING TRANSACTIONS&lt;/font&gt;" style="ellipse;whiteSpace=wrap;html=1;" vertex="1" parent="1">
          <mxGeometry x="3003" y="801" width="111.5" height="74.33" as="geometry" />
        </mxCell>
        <mxCell id="ePUjGjh3mIDfzhiirgS9-105" value="" style="endArrow=open;html=1;rounded=0;entryX=1;entryY=0.5;entryDx=0;entryDy=0;exitX=0;exitY=0.5;exitDx=0;exitDy=0;strokeWidth=2;startArrow=none;startFill=0;edgeStyle=orthogonalEdgeStyle;endFill=0;" edge="1" parent="1" source="ePUjGjh3mIDfzhiirgS9-104" target="ePUjGjh3mIDfzhiirgS9-102">
          <mxGeometry width="50" height="50" relative="1" as="geometry">
            <mxPoint x="2774" y="835" as="sourcePoint" />
            <mxPoint x="2883" y="835" as="targetPoint" />
            <Array as="points">
              <mxPoint x="2980" y="838" />
              <mxPoint x="2980" y="927" />
            </Array>
          </mxGeometry>
        </mxCell>
        <mxCell id="ePUjGjh3mIDfzhiirgS9-106" value="&amp;lt;&amp;lt;depends on&amp;gt;&amp;gt;" style="text;html=1;align=center;verticalAlign=middle;whiteSpace=wrap;rounded=0;" vertex="1" parent="1">
          <mxGeometry x="2862" y="897" width="95" height="30" as="geometry" />
        </mxCell>
        <mxCell id="ePUjGjh3mIDfzhiirgS9-107" value="&lt;font&gt;DOWNLOAD BOOKING TRANSACTION REPORT&lt;/font&gt;" style="ellipse;whiteSpace=wrap;html=1;" vertex="1" parent="1">
          <mxGeometry x="3003" y="909" width="111.5" height="74.33" as="geometry" />
        </mxCell>
        <mxCell id="ePUjGjh3mIDfzhiirgS9-108" value="" style="endArrow=none;html=1;rounded=0;entryX=0.5;entryY=0;entryDx=0;entryDy=0;exitX=0.5;exitY=1;exitDx=0;exitDy=0;strokeWidth=2;startArrow=open;startFill=0;" edge="1" parent="1" source="ePUjGjh3mIDfzhiirgS9-104" target="ePUjGjh3mIDfzhiirgS9-107">
          <mxGeometry width="50" height="50" relative="1" as="geometry">
            <mxPoint x="2774" y="835" as="sourcePoint" />
            <mxPoint x="2883" y="835" as="targetPoint" />
          </mxGeometry>
        </mxCell>
        <mxCell id="ePUjGjh3mIDfzhiirgS9-109" value="&amp;lt;&amp;lt;extends&amp;gt;&amp;gt;" style="text;html=1;align=center;verticalAlign=middle;whiteSpace=wrap;rounded=0;" vertex="1" parent="1">
          <mxGeometry x="2972" y="882" width="95" height="30" as="geometry" />
        </mxCell>
        <mxCell id="ePUjGjh3mIDfzhiirgS9-110" value="" style="endArrow=none;html=1;rounded=0;strokeWidth=2;exitX=1;exitY=0;exitDx=0;exitDy=0;" edge="1" parent="1" source="ePUjGjh3mIDfzhiirgS9-104" target="ePUjGjh3mIDfzhiirgS9-84">
          <mxGeometry width="50" height="50" relative="1" as="geometry">
            <mxPoint x="3113" y="772" as="sourcePoint" />
            <mxPoint x="3209" y="579" as="targetPoint" />
          </mxGeometry>
        </mxCell>
        <mxCell id="cr84Wgf4PF0V1lqdcIP7-1" value="&lt;span style=&quot;font-size: 15px;&quot;&gt;VIEW&lt;/span&gt;&lt;div&gt;&lt;span style=&quot;font-size: 15px;&quot;&gt;CURRENT BOOKING&lt;/span&gt;&lt;/div&gt;&lt;div&gt;&lt;span style=&quot;font-size: 15px;&quot;&gt;DETAILS&lt;/span&gt;&lt;/div&gt;" style="ellipse;whiteSpace=wrap;html=1;" vertex="1" parent="1">
          <mxGeometry x="238.25" y="352" width="139.5" height="93" as="geometry" />
        </mxCell>
        <mxCell id="cr84Wgf4PF0V1lqdcIP7-2" value="" style="endArrow=none;html=1;rounded=0;exitX=1;exitY=1;exitDx=0;exitDy=0;strokeWidth=2;entryX=1;entryY=0.5;entryDx=0;entryDy=0;strokeColor=default;startArrow=open;startFill=0;endFill=0;edgeStyle=orthogonalEdgeStyle;" edge="1" parent="1" source="KaT44PiGJw42yf50C-xi-1" target="cr84Wgf4PF0V1lqdcIP7-1">
          <mxGeometry width="50" height="50" relative="1" as="geometry">
            <mxPoint x="470" y="313" as="sourcePoint" />
            <mxPoint x="378" y="313" as="targetPoint" />
            <Array as="points">
              <mxPoint x="466" y="331" />
              <mxPoint x="466" y="399" />
            </Array>
          </mxGeometry>
        </mxCell>
        <mxCell id="cr84Wgf4PF0V1lqdcIP7-3" value="&amp;lt;&amp;lt;depends on&amp;gt;&amp;gt;" style="text;html=1;align=center;verticalAlign=middle;whiteSpace=wrap;rounded=0;" vertex="1" parent="1">
          <mxGeometry x="361" y="335" width="95" height="30" as="geometry" />
        </mxCell>
        <mxCell id="cr84Wgf4PF0V1lqdcIP7-4" value="" style="endArrow=none;html=1;rounded=0;exitX=0;exitY=0.5;exitDx=0;exitDy=0;strokeWidth=2;" edge="1" parent="1" source="cr84Wgf4PF0V1lqdcIP7-1" target="XjT8wzlENBx4cNednkqP-6">
          <mxGeometry width="50" height="50" relative="1" as="geometry">
            <mxPoint x="258" y="313" as="sourcePoint" />
            <mxPoint x="149" y="361" as="targetPoint" />
          </mxGeometry>
        </mxCell>
        <mxCell id="cr84Wgf4PF0V1lqdcIP7-5" value="&lt;font&gt;VIEW ACTIVE&lt;/font&gt;&lt;div&gt;&lt;font&gt;DRIVERS&lt;/font&gt;&lt;/div&gt;" style="ellipse;whiteSpace=wrap;html=1;" vertex="1" parent="1">
          <mxGeometry x="3003" y="318" width="120" height="80" as="geometry" />
        </mxCell>
        <mxCell id="cr84Wgf4PF0V1lqdcIP7-6" value="" style="endArrow=none;html=1;rounded=0;strokeWidth=2;exitX=1;exitY=0.5;exitDx=0;exitDy=0;" edge="1" parent="1" source="cr84Wgf4PF0V1lqdcIP7-5" target="ePUjGjh3mIDfzhiirgS9-84">
          <mxGeometry width="50" height="50" relative="1" as="geometry">
            <mxPoint x="3130" y="457" as="sourcePoint" />
            <mxPoint x="3226" y="533" as="targetPoint" />
          </mxGeometry>
        </mxCell>
        <mxCell id="FttrxC29l_htZfizc96B-1" value="&lt;font&gt;DOWNLOAD BOOKING TRANSACTION REPORT&lt;/font&gt;" style="ellipse;whiteSpace=wrap;html=1;" vertex="1" parent="1">
          <mxGeometry x="2242" y="712.84" width="111.5" height="74.33" as="geometry" />
        </mxCell>
        <mxCell id="FttrxC29l_htZfizc96B-2" value="&lt;font style=&quot;font-size: 39px; color: rgb(255, 255, 255);&quot;&gt;DITO MAG-BASE THE NARRATIVE!!!&lt;/font&gt;" style="text;html=1;align=center;verticalAlign=middle;whiteSpace=wrap;rounded=0;" vertex="1" parent="1">
          <mxGeometry x="2599" y="1010" width="302" height="140" as="geometry" />
        </mxCell>
      </root>
    </mxGraphModel>
  </diagram>
</mxfile>
